<?xml version="1.0" encoding="utf-8"?>
<!-- Generator: Adobe Illustrator 19.0.0, SVG Export Plug-In . SVG Version: 6.00 Build 0)  -->
<svg version="1.1" id="layer" xmlns="http://www.w3.org/2000/svg" xmlns:xlink="http://www.w3.org/1999/xlink" x="0px" y="0px"
	 viewBox="-153 -46 652 652" style="enable-background:new -153 -46 652 652;" xml:space="preserve">
<style type="text/css">
	.st0{fill:#FBEE1E;}
	.st1{fill:#8DC63F;}
	.st2{fill:#E9262A;}
</style>
<path class="st0" d="M307.3,518.2H29.4C-37,518.2-90.8,462-90.8,392.5V156.6C-90.8,87.2-37,30.9,29.4,30.9h277.9
	c66.4,0,120.3,56.3,120.3,125.7v235.9C427.6,462,373.7,518.2,307.3,518.2"/>
<path class="st1" d="M29.4,37.2c-63,0-114.2,53.5-114.2,119.4v235.9c0,65.8,51.2,119.4,114.2,119.4h277.9
	c63,0,114.2-53.6,114.2-119.4V156.6c0-65.8-51.2-119.4-114.2-119.4H29.4z M307.3,524.6H29.4c-69.7,0-126.3-59.2-126.3-132V156.6
	c0-72.8,56.7-132.1,126.3-132.1h277.9c69.7,0,126.3,59.2,126.3,132.1v235.9C433.6,465.3,377,524.6,307.3,524.6"/>
<path d="M233.6,296.1c-2.9,0.3-5.9,0.6-8.8,0.8c-1.9,0.2-3.7,0.5-5.5,0.9c-1.8,0.4-3.4,1.1-4.8,2c-1.4,0.9-2.5,2.1-3.3,3.6
	c-0.9,1.5-1.3,3.5-1.3,5.8c0,2.9,1.1,5,3.3,6.5c2.2,1.4,4.8,2.1,7.7,2.1c3.1,0,5.7-0.5,7.8-1.5c2.1-1,3.9-2.4,5.4-4
	c1.5-1.6,2.6-3.5,3.5-5.6c0.8-2,1.6-4.1,2.1-6.2l2-7.4C239.2,294.8,236.5,295.8,233.6,296.1 M203.6,264.6c2.2-3.2,4.8-5.8,7.9-7.8
	c3.1-2,6.6-3.4,10.5-4.2c3.9-0.8,7.9-1.3,12-1.3c3.3,0,6.8,0.3,10.4,0.8c3.6,0.5,6.9,1.4,9.9,2.9c3,1.4,5.5,3.4,7.4,6
	c2,2.6,2.9,6.1,2.8,10.4c0,3.7-0.5,8-1.6,12.9l-6.5,30.8c-0.4,1.4-0.7,3.1-0.8,5.1c-0.2,2-0.2,3.8-0.2,5.3c0,1.3,0.3,2.7,0.7,4.4
	h-20.1v-7.5c-2.7,3.2-6.1,5.6-10,7.2c-4,1.5-8.1,2.3-12.3,2.3c-4,0-7.4-0.6-10.4-1.6c-3-1.1-5.4-2.5-7.4-4.4c-2-1.8-3.5-3.9-4.4-6.4
	c-0.9-2.4-1.4-4.9-1.4-7.6c0-7.4,2.5-13.3,7.3-17.8c4.8-4.4,11.7-7.2,20.6-8.3c4.7-0.6,8.8-1,12.3-1.3c3.5-0.3,6.4-0.8,8.7-1.4
	c2.3-0.6,4-1.6,5.2-2.8c1.1-1.2,1.7-3.1,1.7-5.5c0-2-0.4-3.6-1.3-4.7c-0.9-1.2-1.9-2.1-3.2-2.8c-1.3-0.7-2.6-1.2-4.1-1.4
	c-1.5-0.3-2.9-0.4-4.2-0.4c-3.6,0-6.8,0.9-9.6,2.7c-2.8,1.8-4.6,4.7-5.2,8.5h-18.8C200,271.8,201.4,267.8,203.6,264.6"/>
<path d="M310.6,268.2c-1.8-1.8-4.6-2.7-8.6-2.7c-3.6,0-6.5,0.6-8.8,1.7c-2.3,1.1-3.5,3.1-3.5,5.9c0,1.7,0.7,3.1,2,4.3
	c1.4,1.2,3.7,2.3,7.1,3.4l10,3.4c2.7,0.9,5.3,1.9,7.6,3.1c2.3,1.2,4.3,2.6,6.1,4.3c1.7,1.7,3.1,3.8,4.1,6.1c1,2.4,1.5,5.1,1.5,8.3
	c0,4.7-1,8.7-3.1,12c-2,3.3-4.7,6-8,8.1c-3.3,2-7,3.5-11.2,4.4c-4.2,0.9-8.3,1.4-12.6,1.4c-3.6,0-7.2-0.4-10.9-1.2
	c-3.7-0.8-7-2.1-10-3.9c-3-1.8-5.4-4.2-7.3-7.3c-1.9-3-2.8-6.8-2.8-11.3V305h18.5v2.5c0,1.8,0.4,3.3,1.3,4.6c0.8,1.3,2,2.3,3.3,3.2
	c1.4,0.8,2.9,1.5,4.7,1.9c1.7,0.4,3.5,0.7,5.2,0.7c1.5,0,3-0.2,4.5-0.4c1.5-0.3,2.9-0.8,4.1-1.5c1.2-0.8,2.2-1.7,3-2.8
	c0.8-1.1,1.1-2.6,1.1-4.3c0-2.7-0.7-4.5-2-5.6c-1.3-1.1-3.1-2-5.2-2.8l-15.4-5.2c-2.5-0.9-4.8-1.8-6.7-2.8c-2-1-3.6-2.2-5-3.7
	c-1.4-1.5-2.4-3.3-3.1-5.3c-0.7-2.1-1-4.7-1-7.7c0-4.5,1-8.3,3-11.4c2-3.1,4.7-5.5,7.9-7.5c3.2-1.9,6.7-3.3,10.5-4.1
	c3.8-0.9,7.5-1.3,11-1.3c4,0,7.8,0.3,11.5,1c3.7,0.7,6.9,1.9,9.7,3.7c2.8,1.8,5,4.3,6.6,7.5c1.6,3.1,2.4,7.2,2.3,12.1h-18.7
	C313.3,272.5,312.3,270,310.6,268.2"/>
<path d="M368,224.3l-7.5,38h0.3c0.8-1.1,1.8-2.3,3.2-3.6c1.4-1.3,3.1-2.5,5.1-3.6c2-1.1,4.3-2,6.9-2.7c2.6-0.7,5.6-1.1,8.9-1.1
	c14.3,0,21.4,6.9,21.4,20.6c0,0.8-0.1,1.8-0.3,3c-0.2,1.2-0.4,2.5-0.6,3.8c-0.3,1.3-0.5,2.5-0.7,3.6c-0.2,1.1-0.4,2-0.5,2.7
	l-9.1,44.8H375l8.9-44.8c0.2-1.2,0.4-2.7,0.8-4.7c0.3-2,0.5-3.5,0.5-4.6c0-2.3-1-4.1-3-5.6c-2-1.5-4.2-2.2-6.6-2.2
	c-3,0-5.7,0.6-8,1.9c-2.3,1.2-4.3,2.8-5.9,4.8c-1.7,2-3,4.2-4.1,6.8c-1.1,2.5-1.9,5.2-2.5,7.8l-8.2,40.7h-20l21-105.6H368z"/>
<path d="M186,302.9l-4,20.2c0,0-11.4,9.3-41.8,6.7c0,0-40.5-5.4-31.7-47.2c0,0,13.2-52.9,54.6-56.1c0,0,26.4-3.7,41.8,11.5
	l-14.1,17.5c0,0-8.4-14.3-27.3-10.6c0,0-29.1,6-35.2,40c0,0-3.5,26.7,22.9,27.6C151.2,312.6,172.3,313,186,302.9"/>
<path class="st2" d="M-49.2,218.1c0.3-5.7,1-12.6,2.5-19.5c4.8-21.4,15-33.3,31.1-36.1l0.6-0.1c0.1,0,3.7-0.8,9-0.8
	c7,0,16.9,1.4,25.3,8c9.1,7.1,14.9,19.1,17.3,35.7L-49.2,218.1z M204.9,365.9c10.1-6,103.9-29.4,103.9-29.4
	c-86.3,11-276.8,65.3-276.8,65.3l151.4-262.4c9.7-13,7.5-29.3,7.5-29.3c-5.7-19.3-22.5-12.6-22.5-12.6L26.1,123.5
	c-12.7,2.8-14.6,12.2-14.5,18.2c-15.1-4.1-28.4-1.5-30.9-1c-46.5,8.4-53.5,65.3-50.8,94.1c2.7,33.4,13.3,57.7,31.4,72.2
	c14.6,11.7,30.5,13.8,40.1,13.8c5.1,0,8.5-0.6,8.9-0.7c64.6-13.5,53.7-75.4,53.6-76c-1.1-6-6.7-9.9-12.4-8.7
	c-5.7,1.2-9.4,7-8.3,12.9c0,0.1,1.8,10.4-1.7,21.7C36.8,285,25,294.5,6.3,298.5c-1.3,0.2-18.1,2.5-32.5-9.2
	c-11.8-9.6-19.2-26-22.1-49L50,225.5c5.3-0.8,9.1-5.7,8.8-11.3l0-0.3c-1.3-20.6-6.4-37.2-15.1-49.6c2.8-19.1,20.9-22.4,20.9-22.4
	l91.5-13.3L0.3,400.4c-18.9,19.3-9.7,50.1-9.7,50.1c8.8,18.9,35.5,5.1,35.5,5.1l175.3-72.2c-15.8,3.2-84.9,21.6-84.9,21.6
	c16.7-11,157.1-52.4,157.1-52.4C261.3,354.9,204.9,365.9,204.9,365.9"/>
</svg>
