<?xml version="1.0" encoding="utf-8"?>
<!-- Generator: Adobe Illustrator 27.5.0, SVG Export Plug-In . SVG Version: 6.00 Build 0)  -->
<svg version="1.1" xmlns="http://www.w3.org/2000/svg" xmlns:xlink="http://www.w3.org/1999/xlink" x="0px" y="0px"
	 viewBox="0 0 750 500" style="enable-background:new 0 0 750 500;" xml:space="preserve">
<g id="BACKGROUND">
	<rect style="fill:#FFFFFF;" width="750" height="500"/>
</g>
<g id="OBJECTS">
	<g>
		<g>
			<path style="fill:#FFECCF;" d="M693.781,464.426H39.289c-16.371-11.574-16.248-39.901-5.309-56.703
				c10.939-16.802,28.981-27.302,45.277-38.982c16.296-11.68,32.34-26.736,35.534-46.529c4.454-27.603-17.132-51.878-26.092-78.363
				c-11.412-33.731-0.272-73.905,26.883-96.942c27.154-23.036,68.607-27.48,100.027-10.722c26.636,14.206,48.428,42.5,78.605,41.707
				c28.313-0.744,48.231-26.779,65.806-48.988c24.5-30.96,54.689-60.25,93.009-69.756c38.32-9.506,85.478,7.835,97.413,45.469
				c12.401,39.102-15.848,80.045-13.243,120.984c2.127,33.426,27.178,64.163,59.488,72.989c21.439,5.857,44.763,2.78,65.734,10.138
				c28.724,10.077,48.16,39.096,52.365,69.245C718.99,408.119,708.466,437.762,693.781,464.426z"/>
			<path style="fill:#FFECCF;" d="M269.107,147.771c9.653,7.444,24.531,6.838,33.764-1.121s12.08-22.32,6.882-33.348
				c-5.125-10.872-18.456-14.427-29.566-11.606C259.616,106.92,251.131,133.909,269.107,147.771z"/>
			<path style="fill:#FFECCF;" d="M606.096,235.144c16.24-10.636,1.929-34.557-15.221-22.917
				C574.216,223.534,590.067,245.642,606.096,235.144z"/>
			<path style="fill:#FFECCF;" d="M56.907,343.727c10.101-0.63,19.421-7.706,23.072-17.146c3.187-8.242,2.067-18.092-3.158-25.218
				c-10.22-13.937-36.715-13.099-44.508,3.274C24.028,322.045,37.009,344.968,56.907,343.727z"/>
			<path style="fill:#FFFFFF;" d="M353.903,303.962c0.285,6.354,5.653,12.036,11.957,12.883c6.304,0.847,12.881-3.074,15.328-8.944
				c2.448-5.87,0.7-13.168-3.999-17.455C367.737,281.823,353.399,292.709,353.903,303.962z"/>
			<path style="fill:#FFFFFF;" d="M165.773,162.327c-4.318,0.647-7.677,5.125-7.09,9.452c0.588,4.327,5.02,7.747,9.354,7.218
				c4.334-0.529,7.815-4.914,7.345-9.255c-0.469-4.341-4.807-7.881-9.154-7.471"/>
			<path style="fill:#FFFFFF;" d="M494.225,88.135c-4.318,0.647-7.677,5.126-7.09,9.452c0.588,4.327,5.02,7.747,9.354,7.218
				c4.334-0.529,7.815-4.914,7.345-9.255c-0.469-4.341-4.807-7.881-9.154-7.471"/>
		</g>
		<g>
			<g>
				<g>
					<path style="fill:#C1AF55;" d="M81.808,442.182c-3.703-2.672-7.113-5.75-10.148-9.161c-1.511-1.698-2.946-3.506-3.849-5.591
						c-0.903-2.085-1.235-4.494-0.501-6.644c1.414-4.145,6.036-6.032,9.714-8.41c4.395-2.842,8.108-7.487,7.996-12.72
						c-0.113-5.269-3.933-9.628-7.554-13.457c-3.621-3.829-7.48-8.131-7.701-13.396c-0.225-5.363,3.587-10.242,8.268-12.871
						c4.681-2.629,10.13-3.448,15.442-4.222c-3.359,0.934-4.806,4.717-5.486,8.137c-0.681,3.42,0.153,6.993,1.607,10.162
						c1.455,3.169,3.506,6.019,5.419,8.934c3.58,5.457,6.77,11.381,7.617,17.853c0.475,3.629,0.06,7.667-2.446,10.335
						c-2.636,2.807-6.902,3.422-9.892,5.849c-3.041,2.469-4.383,6.565-4.41,10.483c-0.027,3.917,1.092,7.741,2.202,11.498"/>
					<path style="fill:none;stroke:#918440;stroke-width:0.5725;stroke-miterlimit:10;" d="M88.389,445.995
						c-3.909-3.218-7.341-7.016-10.148-11.23c-1.904-2.858-3.577-6.237-2.888-9.601c0.713-3.479,3.753-5.967,6.801-7.79
						c3.048-1.823,6.407-3.376,8.6-6.17c2.588-3.296,3.095-7.89,2.104-11.961c-0.991-4.071-3.319-7.695-5.946-10.959
						c-1.99-2.474-4.179-4.798-5.936-7.442c-1.757-2.644-3.086-5.69-3.091-8.864c-0.005-3.175,1.52-6.472,4.317-7.974"/>
				</g>
				<g>
					<path style="fill:#C1AF55;" d="M99.328,443.555c-2.667-1.12-4.701-3.636-5.236-6.478s0.444-5.926,2.522-7.939
						c2.508-2.43,6.188-3.146,9.663-3.485c3.592-0.35,7.218-0.417,10.771-1.047c3.553-0.63,7.099-1.877,9.796-4.275
						c5.229-4.648,5.946-13.518,1.532-18.946c-1.665-2.048-3.884-3.575-5.67-5.519c-1.786-1.944-3.168-4.587-2.572-7.159
						c0.441-1.9,1.871-3.397,3.318-4.705c2.59-2.34,5.57-4.616,6.583-7.956c1.04-3.431-0.385-7.301-2.989-9.764
						c-2.604-2.464-6.201-3.662-9.771-3.996c-3.569-0.333-7.16,0.127-10.715,0.586c1.927,0.927,3.861,2.303,5.488,3.69
						c1.627,1.387,2.921,3.293,3.119,5.422c0.276,2.975-1.583,5.72-3.633,7.893c-2.051,2.173-4.438,4.156-5.673,6.877
						c-1.224,2.697-1.127,5.957,0.256,8.576c2.347,4.444,8.028,6.995,8.835,11.955c0.53,3.256-1.397,6.525-4.043,8.494
						c-2.646,1.969-5.912,2.882-9.112,3.682c-3.2,0.8-6.48,1.552-9.295,3.272c-3.36,2.052-5.862,5.463-6.812,9.284
						c-0.95,3.821-0.336,8.006,1.671,11.393"/>
					<path style="fill:none;stroke:#918440;stroke-width:0.5725;stroke-miterlimit:10;" d="M90.318,433.949
						c-0.305-4.674,3.879-8.565,8.317-10.062c4.438-1.497,9.248-1.342,13.85-2.214c4.602-0.872,9.436-3.231,11.039-7.632
						c1.739-4.775-0.986-10.052-4.446-13.774c-2.37-2.55-5.314-5.143-5.445-8.622c-0.101-2.686,1.563-5.109,3.376-7.095
						c1.812-1.986,3.894-3.834,4.971-6.297c2.031-4.643-0.673-10.745-5.477-12.36"/>
				</g>
				<g>
					<path style="fill:#C1AF55;" d="M65.448,438.546c-4.122-1.029-8.384-2.127-11.702-4.78c-3.318-2.654-5.421-7.329-3.792-11.253
						c1.967-4.737,8.346-6.589,9.978-11.452c1.013-3.021-0.212-6.459-2.398-8.777c-7-7.421-20.663-4.121-27.86-11.352
						c-3.682-3.699-4.676-9.618-2.993-14.559c1.683-4.94,5.762-8.862,10.528-10.989c4.766-2.128,10.158-2.581,15.343-1.988
						c-2.61,0.963-5.233,2.583-7.465,4.244c-2.232,1.661-4.027,4.124-4.226,6.899c-0.256,3.565,2.183,6.879,5.224,8.757
						c3.041,1.878,6.625,2.619,10.106,3.429c3.482,0.81,7.051,1.774,9.856,3.99c4.227,3.338,6.005,9.459,4.226,14.543
						c-1.205,3.442-3.794,6.239-5.183,9.611c-2.821,6.847,0.382,15.594,6.958,19"/>
					<path style="fill:none;stroke:#918440;stroke-width:0.5725;stroke-miterlimit:10;" d="M71.746,438.951
						c-3.638-1.451-7.358-2.951-10.282-5.558c-2.923-2.607-4.938-6.59-4.142-10.425c0.839-4.042,4.441-6.882,6.263-10.585
						c1.52-3.089,1.723-6.8,0.549-10.037c-1.174-3.237-3.71-5.954-6.857-7.35c-5.132-2.276-11.322-1.035-16.408-3.413
						c-4.266-1.994-7.184-6.585-7.178-11.294c0.006-4.709,2.934-9.292,7.205-11.276"/>
				</g>
				<path style="fill:#DB614A;" d="M78.218,464.105L78.218,464.105c-20.693,0-37.468-16.775-37.468-37.468l0,0h74.937l0,0
					C115.687,447.33,98.912,464.105,78.218,464.105z"/>
				<path style="fill:#A84B39;" d="M116.236,429.934H41.307c-1.142,0-2.068-0.926-2.068-2.068l0,0c0-1.142,0.926-2.068,2.068-2.068
					h74.929c1.142,0,2.068,0.926,2.068,2.068l0,0C118.303,429.009,117.378,429.934,116.236,429.934z"/>
			</g>
			<g>
				<path style="fill:#8F3F1F;" d="M241.183,445.898V277.6l13.828-13.828c0.391-0.391,0.391-1.023,0-1.414
					c-0.391-0.391-1.023-0.391-1.414,0l-12.414,12.414v-18.873l13.828-13.828c0.391-0.391,0.391-1.023,0-1.414
					c-0.391-0.391-1.023-0.391-1.414,0l-12.414,12.414v-16.145h-5v16.121l-12.391-12.391c-0.391-0.391-1.023-0.391-1.414,0
					c-0.391,0.391-0.391,1.023,0,1.414l13.805,13.805v18.873l-12.391-12.391c-0.391-0.391-1.023-0.391-1.414,0
					c-0.391,0.391-0.391,1.023,0,1.414l13.805,13.805v168.322l-18.887,18.887h7.07l14.316-14.316l13.872,13.872h7.07
					L241.183,445.898z"/>
				<g>
					<g>
						<path style="fill:#556BC1;" d="M248.329,230.924c3.99,1.408-16.367,34.699-18.703,39.855
							c-2.336,5.155-10.617,37.542-13.972,35.585c-3.355-1.957,7.548-31.781,10.018-37.254
							C228.143,263.637,244.339,229.516,248.329,230.924z"/>
					</g>
					<path style="fill:#556BC1;" d="M236.565,252.624l-13.824,34.617c-0.849-0.339-1.681-0.719-2.458-1.156
						c-1.155-0.604-2.231-1.288-3.228-2.051c-7.21-5.434-10.45-14.33-7.361-22.064c3.094-7.747,11.571-11.964,20.54-10.938
						c1.248,0.133,2.499,0.379,3.753,0.737C234.852,251.987,235.717,252.285,236.565,252.624z"/>
					<path style="fill:#1B141C;" d="M233.987,251.768l-13.704,34.316c-1.155-0.604-2.231-1.288-3.228-2.051l13.179-33.002
						C231.482,251.165,232.733,251.411,233.987,251.768z"/>
				</g>
				<g>
					<path style="fill:#1B141C;" d="M256.177,288.145l-8.953-24.314c0.041-0.004,0.687-0.104,1.653-0.257
						c0.567-0.081,1.25-0.194,1.983-0.315c1.612-0.253,3.488-0.57,5.008-0.811c1.668-0.273,3.281,0.721,3.799,2.331l5.133,15.906
						c0.522,1.619-0.227,3.376-1.764,4.123l-3.806,1.849l-1.826,0.886L256.177,288.145z"/>
					<path style="fill:#1B141C;" d="M249.297,264.686c-0.068-0.186-3.802-8.226-4.873-7.129c-1.071,1.097-0.031,10.41,3.567,19.799
						c3.598,9.389,8.12,18.825,9.929,18.862s-1.117-12.868-1.117-12.868L249.297,264.686z"/>
					<g>
						<path style="fill:#E6E6E6;" d="M257.405,287.543c-2.142-3.069-3.782-6.568-5.019-9.927
							c-2.329-6.325-3.255-12.197-3.508-14.043c0.567-0.081,1.25-0.194,1.983-0.315c0.356,2.586,2.343,14.93,8.371,23.399
							L257.405,287.543z"/>
					</g>
				</g>
			</g>
			<g>
				<g>
					<defs>
						<rect id="SVGID_1_" x="539.475" y="332.541" width="121.34" height="129.879"/>
					</defs>
					<clipPath id="SVGID_00000029747850084226395100000002776203605381172634_">
						<use xlink:href="#SVGID_1_"  style="overflow:visible;"/>
					</clipPath>
					<g style="clip-path:url(#SVGID_00000029747850084226395100000002776203605381172634_);">
						<rect x="539.475" y="332.541" style="fill:#78A4A5;" width="121.34" height="129.879"/>
					</g>
					<g style="clip-path:url(#SVGID_00000029747850084226395100000002776203605381172634_);">
						<path style="fill:#AD9D4C;" d="M663.544,423.097c1.027-3.223-0.182-6.784-2.108-9.565c-1.926-2.781-4.523-5.021-6.732-7.583
							c-3.033-3.518-5.311-7.613-8.056-11.359c-2.745-3.746-6.126-7.257-10.479-8.878c-8.267-3.08-17.684,1.608-23.378,8.347
							c-4.21,4.982-7.028,10.997-11.055,16.127c-4.028,5.13-9.898,9.537-16.412,9.208c-6.647-0.335-12.151-5.436-18.686-6.694
							c-7.864-1.514-15.917,2.937-20.934,9.179c-5.016,6.242-7.6,14.04-10.085,21.652c-0.393,1.204-0.204,3.262-0.278,4.526v23.436
							h132.26"/>
					</g>
					<g style="clip-path:url(#SVGID_00000029747850084226395100000002776203605381172634_);">
						
							<ellipse transform="matrix(0.7071 -0.7071 0.7071 0.7071 -90.2603 516.4404)" style="fill:#FFB74A;" cx="578.269" cy="367.174" rx="18.472" ry="18.472"/>
					</g>
					<g style="clip-path:url(#SVGID_00000029747850084226395100000002776203605381172634_);">
						<path style="fill:#F2F2F2;" d="M648.974,373.556h-40.901c0.835-2.454,1.479-4.833,3.672-6.216
							c2.192-1.383,5.291-1.527,7.261,0.158c0.65-4.913,4.369-9.174,9.324-9.285s9.696,3.772,10.565,8.651
							c2.165-0.703,5.33-0.611,7.146,0.761C647.858,368.997,649.058,371.281,648.974,373.556z"/>
					</g>
					<g style="clip-path:url(#SVGID_00000029747850084226395100000002776203605381172634_);">
						<path style="fill:#F2F2F2;" d="M567.059,400.992h-40.901c0.835-2.454,1.479-4.833,3.672-6.216
							c2.192-1.383,5.291-1.527,7.261,0.158c0.65-4.913,4.369-9.174,9.324-9.285c4.955-0.111,9.696,3.772,10.565,8.651
							c2.165-0.703,5.33-0.611,7.146,0.761C565.943,396.433,567.142,398.717,567.059,400.992z"/>
					</g>
				</g>
				<g>
					<path style="fill:#B24F26;" d="M662.815,464.421h-125.34V330.542h125.34V464.421z M541.475,460.421h117.34V334.542h-117.34
						V460.421z"/>
				</g>
			</g>
			<g>
				<path style="fill:none;stroke:#1B141C;stroke-width:3.4511;stroke-miterlimit:10;" d="M393.212,391.666h-30.552v-11.437
					c0-7.334,5.945-13.279,13.279-13.279h3.994c7.334,0,13.279,5.945,13.279,13.279V391.666z"/>
				<path style="fill:#DB614A;" d="M422.908,464.468h-89.944c-4.45,0-8.057-3.607-8.057-8.057v-65.02
					c0-4.45,3.607-8.057,8.057-8.057h89.944c4.45,0,8.057,3.607,8.057,8.057v65.02C430.965,460.861,427.357,464.468,422.908,464.468
					z"/>
				<rect x="340.372" y="383.333" style="fill:#1B141C;" width="7.015" height="81.134"/>
				<rect x="408.484" y="383.333" style="fill:#1B141C;" width="7.015" height="81.134"/>
				<g>
					<circle style="fill:#FFFFFF;" cx="343.879" cy="387.991" r="1.515"/>
					<circle style="fill:#FFFFFF;" cx="343.879" cy="459.521" r="1.515"/>
				</g>
				<g>
					<circle style="fill:#FFFFFF;" cx="411.992" cy="387.991" r="1.515"/>
					<circle style="fill:#FFFFFF;" cx="411.992" cy="459.521" r="1.515"/>
				</g>
			</g>
			<g>
				<path style="fill:none;stroke:#1B141C;stroke-width:2.9628;stroke-miterlimit:10;" d="M342.007,401.968h-26.229v-8.104
					c0-7.243,5.871-13.115,13.114-13.115l0,0c7.243,0,13.114,5.871,13.114,13.115V401.968z"/>
				<path style="fill:#C1AF55;" d="M366.361,464.468h-74.935c-4.45,0-8.057-3.607-8.057-8.057v-53.539
					c0-4.45,3.607-8.057,8.057-8.057h74.935c4.45,0,8.057,3.607,8.057,8.057v53.539C374.418,460.861,370.81,464.468,366.361,464.468
					z"/>
				<rect x="296.645" y="394.815" style="fill:#1B141C;" width="6.022" height="69.653"/>
				<rect x="355.118" y="394.815" style="fill:#1B141C;" width="6.022" height="69.653"/>
				<g>
					<path style="fill:#FFFFFF;" d="M300.957,398.813c0,0.718-0.582,1.3-1.3,1.3c-0.718,0-1.3-0.582-1.3-1.3
						c0-0.718,0.582-1.3,1.3-1.3C300.374,397.513,300.957,398.095,300.957,398.813z"/>
					<path style="fill:#FFFFFF;" d="M300.957,460.221c0,0.718-0.582,1.3-1.3,1.3c-0.718,0-1.3-0.582-1.3-1.3
						c0-0.718,0.582-1.3,1.3-1.3C300.374,458.921,300.957,459.503,300.957,460.221z"/>
				</g>
				<g>
					<path style="fill:#FFFFFF;" d="M359.43,398.813c0,0.718-0.582,1.3-1.3,1.3c-0.718,0-1.3-0.582-1.3-1.3
						c0-0.718,0.582-1.3,1.3-1.3C358.848,397.513,359.43,398.095,359.43,398.813z"/>
					<path style="fill:#FFFFFF;" d="M359.43,460.221c0,0.718-0.582,1.3-1.3,1.3c-0.718,0-1.3-0.582-1.3-1.3
						c0-0.718,0.582-1.3,1.3-1.3C358.848,458.921,359.43,459.503,359.43,460.221z"/>
				</g>
			</g>
			<g>
				<rect x="476.752" y="138.284" style="fill:#8F3F1F;" width="44.695" height="33.735"/>
				<rect x="515.392" y="138.284" style="fill:#B24F26;" width="41.117" height="33.735"/>
				<rect x="532.893" y="138.284" style="fill:#D47245;" width="6.115" height="33.735"/>
				<rect x="492.367" y="138.284" style="fill:#D47245;" width="6.115" height="33.735"/>
			</g>
			<g>
				<rect x="522.627" y="118.51" style="fill:#8F3F1F;" width="23.434" height="19.774"/>
				<rect x="542.886" y="118.51" style="fill:#B24F26;" width="21.558" height="19.774"/>
				<rect x="552.062" y="118.51" style="fill:#D47245;" width="3.206" height="19.774"/>
				<rect x="530.814" y="118.51" style="fill:#D47245;" width="3.206" height="19.774"/>
			</g>
			<g>
				<g>
					<rect x="405.913" y="172.206" style="fill:#421F1E;" width="160.598" height="292.219"/>
					<g>
						<path style="fill:#F28355;" d="M559.96,178.758v279.117H412.464V178.758H559.96 M566.511,172.206H405.913v292.219h160.599
							V172.206L566.511,172.206z"/>
					</g>
					<g>
						<rect x="409.388" y="223.804" style="fill:#F28355;" width="152.554" height="6.975"/>
					</g>
					<g>
						<rect x="409.388" y="283.641" style="fill:#F28355;" width="152.554" height="6.975"/>
					</g>
					<g>
						<rect x="409.388" y="343.478" style="fill:#F28355;" width="152.554" height="6.975"/>
					</g>
					<g>
						<rect x="409.388" y="403.315" style="fill:#F28355;" width="152.554" height="6.975"/>
					</g>
				</g>
				<path style="fill:#AD9D4C;" d="M427.194,223.804h-3.648c-1.72,0-3.114-1.394-3.114-3.113v-28.792
					c0-1.719,1.394-3.113,3.114-3.113h3.648c1.72,0,3.113,1.394,3.113,3.113v28.792C430.307,222.41,428.914,223.804,427.194,223.804
					z"/>
				<path style="fill:#FFB74A;" d="M554.914,283.641h-3.648c-1.719,0-3.114-1.394-3.114-3.113v-28.792
					c0-1.719,1.394-3.114,3.114-3.114h3.648c1.719,0,3.114,1.394,3.114,3.114v28.792
					C558.027,282.247,556.633,283.641,554.914,283.641z"/>
				<path style="fill:#DB614A;" d="M475.201,217.043v3.648c0,1.72-1.394,3.113-3.113,3.113h-28.792c-1.72,0-3.113-1.394-3.113-3.113
					v-3.648c0-1.72,1.394-3.113,3.113-3.113h28.792C473.807,213.929,475.201,215.323,475.201,217.043z"/>
				<path style="fill:#DB614A;" d="M485.665,276.88v3.648c0,1.72-1.394,3.113-3.114,3.113H453.76c-1.72,0-3.113-1.394-3.113-3.113
					v-3.648c0-1.72,1.394-3.113,3.113-3.113h28.792C484.271,273.766,485.665,275.16,485.665,276.88z"/>
				<path style="fill:#DB614A;" d="M494.041,317.323v3.648c0,1.72-1.394,3.113-3.113,3.113h-28.792c-1.72,0-3.113-1.394-3.113-3.113
					v-3.648c0-1.72,1.394-3.114,3.113-3.114h28.792C492.647,314.209,494.041,315.603,494.041,317.323z"/>
				<path style="fill:#556BC1;" d="M498.507,267.005v3.648c0,1.72-1.394,3.114-3.113,3.114h-28.792c-1.72,0-3.113-1.394-3.113-3.114
					v-3.648c0-1.72,1.394-3.113,3.113-3.113h28.792C497.113,263.891,498.507,265.285,498.507,267.005z"/>
				<path style="fill:#556BC1;" d="M491.166,336.716v3.648c0,1.72-1.394,3.113-3.113,3.113h-28.792c-1.72,0-3.114-1.394-3.114-3.113
					v-3.648c0-1.72,1.394-3.113,3.114-3.113h28.792C489.772,333.603,491.166,334.997,491.166,336.716z"/>
				<path style="fill:#FFB74A;" d="M492.71,257.13v3.648c0,1.719-1.394,3.113-3.113,3.113h-28.792c-1.719,0-3.113-1.394-3.113-3.113
					v-3.648c0-1.719,1.394-3.113,3.113-3.113h28.792C491.316,254.016,492.71,255.41,492.71,257.13z"/>
				<g>
					<path style="fill:#DB614A;" d="M434.791,396.553v3.648c0,1.72,1.394,3.114,3.113,3.114h28.792c1.719,0,3.113-1.394,3.113-3.114
						v-3.648c0-1.72-1.394-3.113-3.113-3.113h-28.792C436.185,393.44,434.791,394.834,434.791,396.553z"/>
					<path style="fill:#556BC1;" d="M421.949,386.678v3.648c0,1.72,1.394,3.113,3.113,3.113h28.792c1.72,0,3.113-1.394,3.113-3.113
						v-3.648c0-1.72-1.394-3.114-3.113-3.114h-28.792C423.343,383.565,421.949,384.959,421.949,386.678z"/>
					<path style="fill:#FFB74A;" d="M427.745,376.803v3.648c0,1.72,1.394,3.113,3.114,3.113h28.792c1.72,0,3.113-1.394,3.113-3.113
						v-3.648c0-1.72-1.394-3.113-3.113-3.113h-28.792C429.139,373.69,427.745,375.084,427.745,376.803z"/>
				</g>
				<path style="fill:#FFB74A;" d="M485.228,327.198v3.648c0,1.72-1.394,3.114-3.113,3.114h-28.792c-1.72,0-3.114-1.394-3.114-3.114
					v-3.648c0-1.72,1.394-3.113,3.114-3.113h28.792C483.834,324.084,485.228,325.478,485.228,327.198z"/>
				<path style="fill:#DB614A;" d="M548.152,217.043v3.648c0,1.72-1.394,3.113-3.113,3.113h-28.792c-1.72,0-3.114-1.394-3.114-3.113
					v-3.648c0-1.72,1.394-3.113,3.114-3.113h28.792C546.758,213.929,548.152,215.323,548.152,217.043z"/>
				<path style="fill:#556BC1;" d="M554.526,207.146v3.648c0,1.719-1.394,3.113-3.114,3.113h-28.792
					c-1.72,0-3.113-1.394-3.113-3.113v-3.648c0-1.72,1.394-3.113,3.113-3.113h28.792
					C553.132,204.033,554.526,205.427,554.526,207.146z"/>
				<path style="fill:#78A4A5;" d="M483.297,207.146v3.648c0,1.719-1.394,3.113-3.114,3.113h-28.792
					c-1.72,0-3.113-1.394-3.113-3.113v-3.648c0-1.72,1.394-3.113,3.113-3.113h28.792
					C481.903,204.033,483.297,205.427,483.297,207.146z"/>
				<path style="fill:#78A4A5;" d="M505.736,343.478h-3.648c-1.72,0-3.113-1.394-3.113-3.113v-28.792
					c0-1.72,1.394-3.113,3.113-3.113h3.648c1.72,0,3.114,1.394,3.114,3.113v28.792C508.85,342.084,507.456,343.478,505.736,343.478z
					"/>
				<path style="fill:#78A4A5;" d="M515.62,403.228h-3.648c-1.72,0-3.113-1.394-3.113-3.114v-28.792c0-1.72,1.394-3.113,3.113-3.113
					h3.648c1.72,0,3.114,1.394,3.114,3.113v28.792C518.733,401.834,517.339,403.228,515.62,403.228z"/>
				<path style="fill:#DB614A;" d="M493.284,402.908l-3.361-1.418c-1.584-0.669-2.327-2.495-1.658-4.079l11.193-26.527
					c0.668-1.584,2.495-2.327,4.079-1.658l3.361,1.418c1.584,0.669,2.327,2.495,1.658,4.079l-11.193,26.527
					C496.694,402.834,494.868,403.576,493.284,402.908z"/>
				<path style="fill:#556BC1;" d="M437.069,223.804h-3.648c-1.72,0-3.113-1.394-3.113-3.113V197.25
					c0-1.719,1.394-3.113,3.113-3.113h3.648c1.72,0,3.114,1.394,3.114,3.113v23.441C440.182,222.41,438.788,223.804,437.069,223.804
					z"/>
				<g>
					<path style="fill:#DB614A;" d="M490.058,223.152h-3.648c-1.72,0-3.113-1.394-3.113-3.113v-28.792
						c0-1.719,1.394-3.113,3.113-3.113h3.648c1.72,0,3.113,1.394,3.113,3.113v28.792
						C493.171,221.758,491.777,223.152,490.058,223.152z"/>
					<path style="fill:#FFFFFF;" d="M489.833,223.804h-3.199c-1.092,0-1.977-0.885-1.977-1.977v-32.368
						c0-1.092,0.885-1.977,1.977-1.977h3.199c1.092,0,1.977,0.885,1.977,1.977v32.368
						C491.811,222.919,490.925,223.804,489.833,223.804z"/>
				</g>
				<g>
					<path style="fill:#DB614A;" d="M424.377,282.989h-3.648c-1.72,0-3.113-1.394-3.113-3.113v-28.792
						c0-1.719,1.394-3.113,3.113-3.113h3.648c1.72,0,3.114,1.394,3.114,3.113v28.792
						C427.49,281.595,426.096,282.989,424.377,282.989z"/>
					<path style="fill:#FFFFFF;" d="M424.152,283.641h-3.199c-1.092,0-1.977-0.885-1.977-1.977v-32.368
						c0-1.092,0.885-1.977,1.977-1.977h3.199c1.092,0,1.977,0.885,1.977,1.977v32.368
						C426.129,282.756,425.244,283.641,424.152,283.641z"/>
				</g>
				<g>
					<path style="fill:#78A4A5;" d="M434.252,282.989h-3.648c-1.72,0-3.113-1.394-3.113-3.113v-28.792
						c0-1.719,1.394-3.113,3.113-3.113h3.648c1.72,0,3.113,1.394,3.113,3.113v28.792
						C437.365,281.595,435.971,282.989,434.252,282.989z"/>
					<path style="fill:#FFFFFF;" d="M434.027,283.641h-3.199c-1.092,0-1.977-0.885-1.977-1.977v-32.368
						c0-1.092,0.885-1.977,1.977-1.977h3.199c1.092,0,1.977,0.885,1.977,1.977v32.368
						C436.004,282.756,435.119,283.641,434.027,283.641z"/>
				</g>
				<g>
					<path style="fill:#AD9D4C;" d="M444.126,282.989h-3.648c-1.72,0-3.113-1.394-3.113-3.113v-28.792
						c0-1.719,1.394-3.113,3.113-3.113h3.648c1.72,0,3.113,1.394,3.113,3.113v28.792
						C447.24,281.595,445.846,282.989,444.126,282.989z"/>
					<path style="fill:#FFFFFF;" d="M443.902,283.641h-3.199c-1.092,0-1.977-0.885-1.977-1.977v-32.368
						c0-1.092,0.885-1.977,1.977-1.977h3.199c1.092,0,1.977,0.885,1.977,1.977v32.368
						C445.879,282.756,444.994,283.641,443.902,283.641z"/>
				</g>
				<g>
					<path style="fill:#AD9D4C;" d="M501.998,280.527v-3.648c0-1.72,1.394-3.113,3.113-3.113h28.792c1.72,0,3.114,1.394,3.114,3.113
						v3.648c0,1.72-1.394,3.113-3.114,3.113h-28.792C503.392,283.641,501.998,282.247,501.998,280.527z"/>
					<path style="fill:#FFFFFF;" d="M501.346,280.303v-3.199c0-1.092,0.885-1.977,1.977-1.977h32.368
						c1.092,0,1.977,0.885,1.977,1.977v3.199c0,1.092-0.885,1.977-1.977,1.977h-32.368
						C502.231,282.28,501.346,281.395,501.346,280.303z"/>
				</g>
				<g>
					<path style="fill:#556BC1;" d="M509.502,270.653v-3.648c0-1.72,1.394-3.113,3.113-3.113h28.792c1.72,0,3.114,1.394,3.114,3.113
						v3.648c0,1.72-1.394,3.114-3.114,3.114h-28.792C510.896,273.766,509.502,272.372,509.502,270.653z"/>
					<path style="fill:#FFFFFF;" d="M508.85,270.428v-3.199c0-1.092,0.885-1.977,1.977-1.977h32.368
						c1.092,0,1.977,0.885,1.977,1.977v3.199c0,1.092-0.885,1.977-1.977,1.977h-32.368
						C509.735,272.405,508.85,271.52,508.85,270.428z"/>
				</g>
				<path style="fill:#FFB74A;" d="M420.729,457.868h3.648c1.72,0,3.114-1.394,3.114-3.114v-28.792c0-1.72-1.394-3.113-3.114-3.113
					h-3.648c-1.72,0-3.113,1.394-3.113,3.113v28.792C417.615,456.474,419.009,457.868,420.729,457.868z"/>
				<path style="fill:#DB614A;" d="M489.978,451.107v3.648c0,1.72,1.394,3.114,3.113,3.114h28.792c1.72,0,3.114-1.394,3.114-3.114
					v-3.648c0-1.72-1.394-3.113-3.114-3.113h-28.792C491.372,447.993,489.978,449.387,489.978,451.107z"/>
				<path style="fill:#556BC1;" d="M477.136,441.232v3.648c0,1.72,1.394,3.113,3.113,3.113h28.792c1.719,0,3.113-1.394,3.113-3.113
					v-3.648c0-1.72-1.394-3.114-3.113-3.114h-28.792C478.53,438.118,477.136,439.512,477.136,441.232z"/>
				<path style="fill:#FFB74A;" d="M482.932,431.357v3.648c0,1.72,1.394,3.113,3.113,3.113h28.792c1.72,0,3.114-1.394,3.114-3.113
					v-3.648c0-1.72-1.394-3.113-3.114-3.113h-28.792C484.326,428.243,482.932,429.637,482.932,431.357z"/>
				<g>
					<path style="fill:#DB614A;" d="M551.266,457.216h3.648c1.719,0,3.114-1.394,3.114-3.113v-28.792
						c0-1.719-1.394-3.113-3.114-3.113h-3.648c-1.719,0-3.114,1.394-3.114,3.113v28.792
						C548.152,455.822,549.547,457.216,551.266,457.216z"/>
					<path style="fill:#FFFFFF;" d="M551.491,457.868h3.199c1.092,0,1.977-0.885,1.977-1.977v-32.368
						c0-1.092-0.885-1.977-1.977-1.977h-3.199c-1.092,0-1.977,0.885-1.977,1.977v32.368
						C549.513,456.983,550.398,457.868,551.491,457.868z"/>
				</g>
				<g>
					<path style="fill:#78A4A5;" d="M541.391,457.216h3.648c1.719,0,3.113-1.394,3.113-3.113v-28.792
						c0-1.719-1.394-3.113-3.113-3.113h-3.648c-1.72,0-3.113,1.394-3.113,3.113v28.792
						C538.278,455.822,539.672,457.216,541.391,457.216z"/>
					<path style="fill:#FFFFFF;" d="M541.616,457.868h3.199c1.092,0,1.977-0.885,1.977-1.977v-32.368
						c0-1.092-0.885-1.977-1.977-1.977h-3.199c-1.092,0-1.977,0.885-1.977,1.977v32.368
						C539.638,456.983,540.524,457.868,541.616,457.868z"/>
				</g>
				<g>
					<path style="fill:#AD9D4C;" d="M531.516,457.216h3.648c1.719,0,3.114-1.394,3.114-3.113v-28.792
						c0-1.719-1.394-3.113-3.114-3.113h-3.648c-1.719,0-3.114,1.394-3.114,3.113v28.792
						C528.403,455.822,529.797,457.216,531.516,457.216z"/>
					<path style="fill:#FFFFFF;" d="M531.741,457.868h3.199c1.092,0,1.977-0.885,1.977-1.977v-32.368
						c0-1.092-0.885-1.977-1.977-1.977h-3.199c-1.092,0-1.977,0.885-1.977,1.977v32.368
						C529.764,456.983,530.649,457.868,531.741,457.868z"/>
				</g>
				<g>
					<path style="fill:#AD9D4C;" d="M473.645,454.754v-3.648c0-1.72-1.394-3.113-3.113-3.113h-28.792
						c-1.719,0-3.113,1.394-3.113,3.113v3.648c0,1.72,1.394,3.114,3.113,3.114h28.792
						C472.251,457.868,473.645,456.474,473.645,454.754z"/>
					<path style="fill:#FFFFFF;" d="M474.297,454.53v-3.199c0-1.092-0.885-1.977-1.977-1.977h-32.368
						c-1.092,0-1.977,0.885-1.977,1.977v3.199c0,1.092,0.885,1.977,1.977,1.977h32.368
						C473.411,456.507,474.297,455.622,474.297,454.53z"/>
				</g>
				<g>
					<path style="fill:#556BC1;" d="M466.141,444.88v-3.648c0-1.72-1.394-3.114-3.113-3.114h-28.792
						c-1.72,0-3.114,1.394-3.114,3.114v3.648c0,1.72,1.394,3.113,3.114,3.113h28.792
						C464.747,447.993,466.141,446.599,466.141,444.88z"/>
					<path style="fill:#FFFFFF;" d="M466.793,444.655v-3.199c0-1.092-0.885-1.977-1.977-1.977h-32.368
						c-1.092,0-1.977,0.885-1.977,1.977v3.199c0,1.092,0.885,1.977,1.977,1.977h32.368
						C465.908,446.632,466.793,445.747,466.793,444.655z"/>
				</g>
				<g>
					<path style="fill:#FFB74A;" d="M508.988,221.909l-3.497,1.038c-1.648,0.489-3.382-0.45-3.871-2.099l-8.193-27.602
						c-0.489-1.648,0.45-3.382,2.099-3.871l3.497-1.038c1.648-0.489,3.382,0.45,3.871,2.099l8.193,27.602
						C511.576,219.687,510.636,221.42,508.988,221.909z"/>
					<path style="fill:#FFFFFF;" d="M508.958,222.598l-3.067,0.91c-1.047,0.311-2.147-0.286-2.458-1.333l-9.21-31.03
						c-0.311-1.047,0.286-2.147,1.333-2.458l3.067-0.91c1.047-0.311,2.147,0.286,2.458,1.333l9.21,31.03
						C510.602,221.187,510.005,222.288,508.958,222.598z"/>
				</g>
				<g>
					<path style="fill:#DB614A;" d="M533.772,402.576h-3.648c-1.719,0-3.114-1.394-3.114-3.113v-28.792
						c0-1.719,1.394-3.113,3.114-3.113h3.648c1.719,0,3.113,1.394,3.113,3.113v28.792
						C536.886,401.182,535.492,402.576,533.772,402.576z"/>
					<path style="fill:#FFFFFF;" d="M533.548,403.228h-3.199c-1.092,0-1.977-0.885-1.977-1.977v-32.368
						c0-1.092,0.885-1.977,1.977-1.977h3.199c1.092,0,1.977,0.885,1.977,1.977v32.368
						C535.525,402.343,534.64,403.228,533.548,403.228z"/>
				</g>
				<g>
					<path style="fill:#FFB74A;" d="M552.702,401.333l-3.497,1.038c-1.648,0.489-3.381-0.45-3.871-2.099l-8.193-27.602
						c-0.489-1.648,0.45-3.382,2.099-3.871l3.497-1.038c1.648-0.489,3.381,0.45,3.871,2.099l8.193,27.602
						C555.29,399.111,554.351,400.844,552.702,401.333z"/>
					<path style="fill:#FFFFFF;" d="M552.672,402.022l-3.066,0.91c-1.047,0.311-2.148-0.286-2.458-1.333l-9.21-31.03
						c-0.311-1.047,0.286-2.148,1.333-2.458l3.067-0.91c1.047-0.311,2.147,0.286,2.458,1.333l9.21,31.03
						C554.316,400.611,553.719,401.712,552.672,402.022z"/>
				</g>
				<g>
					<path style="fill:#DB614A;" d="M439.689,342.826h3.648c1.719,0,3.113-1.394,3.113-3.114v-28.792
						c0-1.72-1.394-3.113-3.113-3.113h-3.648c-1.72,0-3.114,1.394-3.114,3.113v28.792
						C436.576,341.432,437.97,342.826,439.689,342.826z"/>
					<path style="fill:#FFFFFF;" d="M439.914,343.478h3.199c1.092,0,1.977-0.885,1.977-1.977v-32.368
						c0-1.092-0.885-1.977-1.977-1.977h-3.199c-1.092,0-1.977,0.885-1.977,1.977V341.5
						C437.936,342.592,438.822,343.478,439.914,343.478z"/>
				</g>
				<g>
					<path style="fill:#DB614A;" d="M512.482,336.716v3.648c0,1.72,1.394,3.113,3.113,3.113h28.792c1.72,0,3.113-1.394,3.113-3.113
						v-3.648c0-1.72-1.394-3.113-3.113-3.113h-28.792C513.876,333.603,512.482,334.997,512.482,336.716z"/>
					<path style="fill:#FFFFFF;" d="M511.83,336.941v3.199c0,1.092,0.885,1.977,1.977,1.977h32.368c1.092,0,1.977-0.885,1.977-1.977
						v-3.199c0-1.092-0.885-1.977-1.977-1.977h-32.368C512.715,334.964,511.83,335.849,511.83,336.941z"/>
				</g>
				<g>
					<path style="fill:#FFB74A;" d="M520.063,326.841v3.648c0,1.72,1.394,3.114,3.114,3.114h28.792c1.72,0,3.114-1.394,3.114-3.114
						v-3.648c0-1.72-1.394-3.113-3.114-3.113h-28.792C521.457,323.728,520.063,325.122,520.063,326.841z"/>
					<path style="fill:#FFFFFF;" d="M519.411,327.066v3.199c0,1.092,0.885,1.977,1.977,1.977h32.368
						c1.092,0,1.977-0.885,1.977-1.977v-3.199c0-1.092-0.885-1.977-1.977-1.977h-32.368
						C520.296,325.089,519.411,325.974,519.411,327.066z"/>
				</g>
				<g>
					<path style="fill:#556BC1;" d="M513.796,316.967v3.648c0,1.72,1.394,3.113,3.113,3.113h28.792c1.72,0,3.113-1.394,3.113-3.113
						v-3.648c0-1.72-1.394-3.114-3.113-3.114h-28.792C515.19,313.853,513.796,315.247,513.796,316.967z"/>
					<path style="fill:#FFFFFF;" d="M513.144,317.191v3.199c0,1.092,0.885,1.977,1.977,1.977h32.368
						c1.092,0,1.977-0.885,1.977-1.977v-3.199c0-1.092-0.885-1.977-1.977-1.977h-32.368
						C514.029,315.214,513.144,316.099,513.144,317.191z"/>
				</g>
				<g>
					<path style="fill:#FFB74A;" d="M420.759,341.583l3.497,1.038c1.648,0.489,3.382-0.45,3.871-2.099l8.193-27.602
						c0.489-1.648-0.45-3.381-2.099-3.871l-3.497-1.038c-1.648-0.489-3.381,0.45-3.871,2.099l-8.193,27.602
						C418.171,339.361,419.111,341.094,420.759,341.583z"/>
					<path style="fill:#FFFFFF;" d="M420.789,342.272l3.066,0.91c1.047,0.311,2.148-0.286,2.458-1.333l9.21-31.03
						c0.311-1.047-0.286-2.147-1.333-2.458l-3.067-0.91c-1.047-0.311-2.147,0.286-2.458,1.333l-9.21,31.03
						C419.146,340.861,419.742,341.961,420.789,342.272z"/>
				</g>
			</g>
			<g>
				<path style="fill:none;stroke:#303C6E;stroke-width:0.8771;stroke-miterlimit:10;" d="M597.179,422.189v-13.994
					c0-6.011,4.873-10.885,10.884-10.885h0c6.011,0,10.884,4.873,10.884,10.885v13.994"/>
				<polygon style="fill:#3C4C8A;" points="636.405,464.426 631.242,461.995 626.072,464.426 584.55,464.426 591.674,416.923 
					629.281,416.923 				"/>
				<polygon style="fill:#556BC1;" points="626.073,464.422 574.218,464.422 581.343,416.921 618.948,416.921 				"/>
				<polygon style="fill:#303C6E;" points="618.948,416.921 624.694,419.479 629.281,416.923 				"/>
				<path style="fill:none;stroke:#303C6E;stroke-width:0.8771;stroke-miterlimit:10;" d="M590.085,422.189v-13.994
					c0-6.011,4.873-10.885,10.885-10.885l0,0c6.011,0,10.884,4.873,10.884,10.885v13.994"/>
				<path style="fill:#303C6E;" d="M591.948,422.189c0,1.029-0.834,1.863-1.863,1.863s-1.863-0.834-1.863-1.863
					c0-1.029,0.834-1.863,1.863-1.863S591.948,421.16,591.948,422.189z"/>
				<path style="fill:#303C6E;" d="M613.717,422.189c0,1.029-0.834,1.863-1.863,1.863c-1.029,0-1.863-0.834-1.863-1.863
					c0-1.029,0.834-1.863,1.863-1.863C612.883,420.326,613.717,421.16,613.717,422.189z"/>
			</g>
			<g>
				<path style="fill:none;stroke:#A84B39;stroke-width:0.8771;stroke-miterlimit:10;" d="M430.904,129.781v-13.994
					c0-6.011,4.873-10.884,10.884-10.884l0,0c6.011,0,10.884,4.873,10.884,10.884v13.994"/>
				<polygon style="fill:#A84B39;" points="470.13,172.019 464.967,169.588 459.797,172.019 418.275,172.019 425.399,124.516 
					463.005,124.516 				"/>
				<polygon style="fill:#DB614A;" points="459.798,172.015 407.943,172.015 415.068,124.514 452.673,124.514 				"/>
				<polygon style="fill:#873C2E;" points="452.673,124.514 458.419,127.072 463.005,124.516 				"/>
				<path style="fill:none;stroke:#A84B39;stroke-width:0.8771;stroke-miterlimit:10;" d="M423.81,129.781v-13.994
					c0-6.011,4.873-10.884,10.885-10.884l0,0c6.011,0,10.884,4.873,10.884,10.884v13.994"/>
				<path style="fill:#A84B39;" d="M425.673,129.781c0,1.029-0.834,1.863-1.863,1.863c-1.029,0-1.863-0.834-1.863-1.863
					c0-1.029,0.834-1.863,1.863-1.863C424.839,127.919,425.673,128.753,425.673,129.781z"/>
				<path style="fill:#A84B39;" d="M447.442,129.781c0,1.029-0.834,1.863-1.863,1.863s-1.863-0.834-1.863-1.863
					c0-1.029,0.834-1.863,1.863-1.863S447.442,128.753,447.442,129.781z"/>
			</g>
			<g>
				<g>
					<g>
						<rect x="130.182" y="365.179" style="fill:#CCCCCC;" width="1.678" height="47.727"/>
					</g>
					<g>
						
							<rect x="124.982" y="396.201" transform="matrix(0.7472 -0.6646 0.6646 0.7472 -226.2369 199.2799)" style="fill:#CCCCCC;" width="47.726" height="1.678"/>
					</g>
					<g>
						
							<rect x="153.884" y="391.808" transform="matrix(0.1159 -0.9933 0.9933 0.1159 -276.0793 521.1771)" style="fill:#CCCCCC;" width="1.677" height="47.726"/>
					</g>
					<g>
						
							<rect x="143.874" y="408.586" transform="matrix(0.819 -0.5738 0.5738 0.819 -221.9477 161.3145)" style="fill:#CCCCCC;" width="1.678" height="47.726"/>
					</g>
					<g>
						
							<rect x="101.663" y="435.288" transform="matrix(0.2305 -0.9731 0.9731 0.2305 -327.7918 457.7391)" style="fill:#CCCCCC;" width="47.726" height="1.678"/>
					</g>
					<g>
						
							<rect x="86.158" y="423.402" transform="matrix(0.88 -0.475 0.475 0.88 -188.2955 103.1613)" style="fill:#CCCCCC;" width="47.726" height="1.678"/>
					</g>
					<g>
						
							<rect x="110.153" y="375.611" transform="matrix(0.5523 -0.8337 0.8337 0.5523 -283.4655 271.4487)" style="fill:#CCCCCC;" width="1.678" height="48.051"/>
					</g>
				</g>
				<g>
					<g>
						<rect x="285.942" y="365.179" style="fill:#CCCCCC;" width="1.678" height="47.727"/>
					</g>
					<g>
						
							<rect x="280.742" y="396.201" transform="matrix(0.7472 -0.6646 0.6646 0.7472 -186.8689 302.8156)" style="fill:#CCCCCC;" width="47.726" height="1.678"/>
					</g>
					<g>
						
							<rect x="309.644" y="391.808" transform="matrix(0.1159 -0.9933 0.9933 0.1159 -138.3709 675.8878)" style="fill:#CCCCCC;" width="1.677" height="47.726"/>
					</g>
					<g>
						
							<rect x="299.634" y="408.586" transform="matrix(0.819 -0.5738 0.5738 0.819 -193.7534 250.69)" style="fill:#CCCCCC;" width="1.678" height="47.726"/>
					</g>
					<g>
						
							<rect x="257.423" y="435.288" transform="matrix(0.2305 -0.9731 0.9731 0.2305 -207.9363 609.3048)" style="fill:#CCCCCC;" width="47.726" height="1.678"/>
					</g>
					<g>
						
							<rect x="241.918" y="423.402" transform="matrix(0.88 -0.475 0.475 0.88 -169.6055 177.1412)" style="fill:#CCCCCC;" width="47.726" height="1.678"/>
					</g>
					<g>
						
							<rect x="265.913" y="375.612" transform="matrix(0.5523 -0.8336 0.8336 0.5523 -213.7303 401.2958)" style="fill:#CCCCCC;" width="1.678" height="48.05"/>
					</g>
				</g>
				<g>
					<path style="fill:#1B141C;" d="M131.02,464.311c-28.345,0-51.405-23.061-51.405-51.405c0-28.346,23.06-51.406,51.405-51.406
						c28.345,0,51.405,23.06,51.405,51.406C182.425,441.25,159.365,464.311,131.02,464.311z M131.02,368.21
						c-24.645,0-44.695,20.05-44.695,44.695c0,24.645,20.05,44.694,44.695,44.694c24.645,0,44.695-20.05,44.695-44.694
						C175.715,388.26,155.665,368.21,131.02,368.21z"/>
				</g>
				<g>
					<path style="fill:#1B141C;" d="M286.135,464.311c-28.345,0-51.405-23.061-51.405-51.405c0-28.346,23.06-51.406,51.405-51.406
						c28.345,0,51.405,23.06,51.405,51.406C337.54,441.25,314.48,464.311,286.135,464.311z M286.135,368.21
						c-24.645,0-44.695,20.05-44.695,44.695c0,24.645,20.05,44.694,44.695,44.694c24.645,0,44.695-20.05,44.695-44.694
						C330.83,388.26,310.78,368.21,286.135,368.21z"/>
				</g>
				<g>
					<polygon style="fill:#DB614A;" points="132.178,413.747 129.863,412.065 173.675,351.749 268.21,351.749 287.499,412.472 
						284.771,413.339 266.117,354.61 175.133,354.61 					"/>
				</g>
				<g>
					<circle style="fill:#1B141C;" cx="131.02" cy="412.905" r="12.514"/>
				</g>
				<g>
					<path style="fill:#1B141C;" d="M204.209,439.596c-8.667,0-15.718-7.051-15.718-15.718c0-8.666,7.051-15.717,15.718-15.717
						c8.666,0,15.717,7.051,15.717,15.717C219.926,432.545,212.875,439.596,204.209,439.596z M204.209,411.023
						c-7.089,0-12.857,5.767-12.857,12.855s5.768,12.856,12.857,12.856s12.856-5.768,12.856-12.856S211.298,411.023,204.209,411.023
						z"/>
				</g>
				<g>
					<circle style="fill:#1B141C;" cx="286.135" cy="412.905" r="12.514"/>
				</g>
				<g>
					<polygon style="fill:#DB614A;" points="202.889,425.971 168.895,344.658 168.895,329.374 171.756,329.374 171.756,344.083 
						205.529,424.868 					"/>
				</g>
				<g>
					<polygon style="fill:#DB614A;" points="268.417,353.869 265.91,352.49 270.817,343.561 270.817,328.24 273.679,328.24 
						273.679,344.295 					"/>
				</g>
				<g>
					<path style="fill:#1B141C;" d="M164.057,335.717c1.013,0.11,2.027,0.203,3.044,0.278c5.147,0.383,10.326,0.322,15.462-0.188
						c2.304-0.229,5.136-0.242,7.062-1.719c2.447-1.877,2.399-5.651,2.336-8.451c-0.005-0.203-0.019-0.425-0.157-0.574
						c-0.132-0.142-0.34-0.177-0.533-0.204c-8.157-1.138-16.309-1.912-24.537-2.323c-3.764-0.188-7.462,0.456-10.842,2.171
						c-1.297,0.658-9.189,5.871-7.563,7.708c0.233,0.263,0.592,0.369,0.931,0.461C154.107,334.192,159.061,335.178,164.057,335.717z
						"/>
				</g>
				<g>
					
						<rect x="177.373" y="423.677" transform="matrix(0.8128 -0.5825 0.5825 0.8128 -209.4392 198.4006)" style="fill:#DB614A;" width="53.278" height="2.862"/>
				</g>
				<g>
					
						<rect x="217.943" y="408.59" transform="matrix(0.7071 0.7071 -0.7071 0.7071 356.4915 -39.2833)" style="fill:#1B141C;" width="15.444" height="4.189"/>
				</g>
				<g>
					
						<rect x="175.259" y="438.53" transform="matrix(0.7071 0.7071 -0.7071 0.7071 365.1643 -0.3303)" style="fill:#1B141C;" width="15.444" height="4.189"/>
				</g>
				<g>
					<path style="fill:#1B141C;" d="M274.819,324.121c1.42,1.42,1.42,3.722,0,5.142c-1.42,1.42-3.722,1.42-5.142,0
						c-1.42-1.42-1.42-3.722,0-5.142S273.399,322.701,274.819,324.121z"/>
				</g>
			</g>
			<g>
				<g>
					
						<line style="fill:none;stroke:#382632;stroke-width:1.8899;stroke-miterlimit:10;" x1="572.521" y1="395.258" x2="580.544" y2="387.236"/>
					<g>
						<path style="fill:#382632;" d="M576.896,399.633c-2.416,2.416-6.333,2.416-8.749,0c-2.416-2.416-2.416-6.333,0-8.749
							c2.416-2.416,6.333-2.416,8.749,0C579.312,393.3,579.312,397.217,576.896,399.633z"/>
						<path style="fill:#F2F2F2;" d="M574.394,397.131c-1.034,1.034-2.711,1.034-3.745,0c-1.034-1.034-1.034-2.711,0-3.745
							c1.034-1.034,2.711-1.034,3.745,0C575.428,394.42,575.428,396.097,574.394,397.131z"/>
					</g>
				</g>
				<g>
					
						<line style="fill:none;stroke:#382632;stroke-width:1.8899;stroke-miterlimit:10;" x1="635.495" y1="458.232" x2="643.518" y2="450.21"/>
					<g>
						<path style="fill:#382632;" d="M639.87,462.607c-2.416,2.416-6.333,2.416-8.749,0c-2.416-2.416-2.416-6.333,0-8.749
							c2.416-2.416,6.333-2.416,8.749,0C642.286,456.274,642.286,460.191,639.87,462.607z"/>
						<path style="fill:#F2F2F2;" d="M637.368,460.105c-1.034,1.034-2.711,1.034-3.745,0c-1.034-1.034-1.034-2.711,0-3.745
							c1.034-1.034,2.711-1.034,3.745,0C638.402,457.394,638.402,459.071,637.368,460.105z"/>
					</g>
				</g>
				
					<polyline style="fill:none;stroke:#421F1E;stroke-width:3.7799;stroke-linecap:round;stroke-linejoin:round;stroke-miterlimit:10;" points="
					567.248,368.555 572.19,378.882 649.506,456.197 661.099,462.406 				"/>
			</g>
		</g>
		<g>
			<g>
				<path style="fill:#D06C54;" d="M656.727,415.709c0.028,1.624,0.049,3.248,0.089,4.873c0.11,5.839,0.271,11.681,0.446,17.523
					c0.239,5.846,0.388,11.687,0.707,17.536c0.14,2.598,2.072,4.839,4.745,5.267c3.078,0.492,5.972-1.604,6.464-4.682
					c0.925-5.785,1.68-11.579,2.526-17.368c0.781-5.792,1.549-11.586,2.265-17.382c0.243-1.879,0.466-3.759,0.694-5.638
					C668.683,415.786,662.704,415.718,656.727,415.709z"/>
			</g>
			<g>
				<path style="fill:#1B141C;" d="M670.75,452.155c-0.008,0.704-0.042,1.451-0.085,2.214c-0.026,0.467-0.059,0.933-0.093,1.408
					c-0.051,0.67-0.11,1.349-0.17,2.002c-0.127,1.442-0.271,2.791-0.399,3.886c-0.17,1.544-0.297,2.571-0.297,2.571l-33.675-0.025
					c0,0-0.959-1.094-0.008-2.545c1.383-2.147,3.962-5.091,8.255-6.525c4.709-1.578,7.551-3.657,9.46-5.735
					c0.059-0.068,0.119-0.127,0.17-0.195c0.577-0.628,1.052-1.273,1.485-1.892c0.051-0.068,0.093-0.144,0.136-0.212
					c0.221-0.331,0.416-0.653,0.611-0.967c1.833-3.012,6.295,5.192,6.295,5.192s5.999-4.242,7.679-3.631
					C670.657,447.905,670.801,449.754,670.75,452.155z"/>
				<path style="fill:#D5D5D1;" d="M670.006,461.665c0.103,1.535,0.091,2.573,0.091,2.573l-34.073-0.029
					c0,0-0.953-1.095,0.001-2.545H670.006z"/>
				<path style="fill:#D5D5D1;" d="M658.032,449.703l-1.018,1.307c-0.17,0.221-0.492,0.255-0.704,0.085l-2.401-1.884
					c0.577-0.628,1.052-1.273,1.485-1.892c0.051-0.068,0.093-0.144,0.136-0.212l2.418,1.892
					C658.167,449.169,658.21,449.491,658.032,449.703z"/>
				<g>
					<path style="fill:#D5D5D1;" d="M670.665,454.37c-0.026,0.467-0.059,0.933-0.093,1.408c-1.273,0.789-2.698,1.366-4.2,1.68
						c-1.018,0.221-2.087,0.314-3.139,0.272c-1.044-0.034-2.028-0.153-2.953-0.195c-0.925-0.034-1.756,0.026-2.511,0.263
						c-0.764,0.229-1.485,0.645-2.113,1.154c-1.264,1.027-2.13,2.52-2.435,4.03l-3.351-0.883c0.721-2.265,2.189-4.208,4.115-5.464
						c0.959-0.628,2.036-1.103,3.182-1.323c1.154-0.238,2.308-0.178,3.326-0.026c1.035,0.153,1.985,0.373,2.893,0.492
						c0.899,0.127,1.807,0.144,2.724,0.042C667.687,455.659,669.248,455.159,670.665,454.37z"/>
				</g>
			</g>
			<path style="fill:#FF9838;" d="M663.001,326.172l-8.473,54.757c-0.109,0.702-0.149,1.413-0.12,2.122l1.617,39.504l18.261,1.191
				c0,0,13.819-77.346,13.972-77.807s2.15-19.858,2.15-19.858L663.001,326.172z"/>
			
				<line style="fill:none;stroke:#FFB74A;stroke-width:0.8329;stroke-miterlimit:10;" x1="671.515" y1="423.244" x2="685.568" y2="345.865"/>
			<path style="fill:#1B141C;" d="M701.553,264.311c6.217-0.426,12.41-4.277,14.384-10.187c1.36-4.071,0.63-8.609-1.1-12.538
				c-1.73-3.929-3.983-7.187-6.617-10.576c2.628-0.913,4.292-3.67,4.603-6.435c0.311-2.765-0.506-5.533-1.551-8.112
				c-0.781-1.928-1.709-3.825-3.052-5.415c-1.342-1.59-2.594-3.079-4.635-3.483c1.424-2.585,1.504-5.866,0.208-8.517
				c-1.296-2.652-3.871-5.261-6.785-5.726c0.133-1.957-0.658-3.957-2.094-5.294c-1.436-1.337-3.487-1.984-5.43-1.712
				c-2.447,0.342-4.7,2.04-7.148,1.709c-2.691-0.364-4.417-2.98-6.73-4.404c-3.484-2.144-8.25-1.313-11.452,1.232
				c-3.203,2.545-5.032,6.477-5.965,10.46c-0.638,2.723-0.895,5.647,0.088,8.265c0.982,2.618,3.462,4.822,6.258,4.767
				c-0.967,1.985-1.048,4.566-0.573,6.722c0.475,2.156,1.697,4.141,3.409,5.536c-3.766,5.131-5.055,11.79-3.127,17.855
				c1.928,6.066,6.878,11.087,12.915,13.102C685.172,254.234,694.391,259.833,701.553,264.311z"/>
			<path style="fill:#D06C54;" d="M669.589,310.432h31.937l6.897-51.848c0.848-6.377-1.484-12.383-5.844-14.337l-16.254-7.284
				l-17.622,7.414c-4.445,1.87-6.849,7.925-5.991,14.373L669.589,310.432z"/>
			<g>
				<path style="fill:#D06C54;" d="M693.896,415.817c0.359,2.81,0.71,5.62,1.077,8.431c1.421,10.672,2.912,21.345,4.545,32.018
					c0.403,2.652,2.661,4.716,5.436,4.782c3.11,0.074,5.692-2.388,5.766-5.499c0.257-10.83,0.371-21.659,0.415-32.49
					c0.005-2.63-0.006-5.261-0.009-7.892C705.39,415.54,699.645,415.728,693.896,415.817z"/>
			</g>
			<path style="fill:#D06C54;" d="M671.262,332.148h31.015c4.239,0,6.347-6.417,4.701-12.969l-5.125-20.399h-30.168l-5.125,20.399
				C664.914,325.731,667.023,332.148,671.262,332.148z"/>
			<g>
				<path style="fill:#1B141C;" d="M697.863,464.086v0.025h20.757v-1.874c0-0.233-0.008-0.466-0.025-0.7
					c-0.058-1.049-0.267-2.074-0.617-3.048c-0.425-1.191-1.058-2.307-1.866-3.307l-5.214-6.43c0-1.658-1.341-2.999-2.999-2.999
					h-4.506c-1.258,0-2.374,0.775-2.807,1.949l-2.241,5.164c-0.133,0.316-0.242,0.641-0.308,0.966
					c-0.008,0.042-0.017,0.075-0.025,0.117c-0.017,0.058-0.025,0.117-0.033,0.175c-0.067,0.342-0.092,0.7-0.083,1.058
					c0.008,0.367,0.017,0.825,0.017,1.349c0.008,0.208,0.008,0.425,0.008,0.658c0,0.508,0,1.066-0.008,1.674
					c0,0.808-0.008,1.707-0.025,2.674C697.871,462.345,697.863,463.194,697.863,464.086z"/>
				<path style="fill:#A8A8A5;" d="M712.103,462.262v1.866l-14.243-0.017c0-0.891,0.006-1.741,0.017-2.549h14.209
					C712.098,461.796,712.103,462.029,712.103,462.262z"/>
				<path style="fill:#D5D5D1;" d="M708.761,451.598h-4.842c-0.725,0-1.312-0.587-1.312-1.312l0,0c0-0.725,0.588-1.312,1.312-1.312
					h4.842c0.725,0,1.312,0.587,1.312,1.312l0,0C710.073,451.01,709.485,451.598,708.761,451.598z"/>
				<path style="fill:#D5D5D1;" d="M710.969,453.674h-6.209c-0.347,0-0.629-0.281-0.629-0.629l0,0c0-0.347,0.281-0.629,0.629-0.629
					h6.209c0.347,0,0.629,0.281,0.629,0.629l0,0C711.598,453.393,711.316,453.674,710.969,453.674z"/>
				<path style="fill:#D5D5D1;" d="M712.131,455.829h-6.209c-0.347,0-0.629-0.281-0.629-0.629l0,0c0-0.347,0.281-0.629,0.629-0.629
					h6.209c0.347,0,0.629,0.281,0.629,0.629l0,0C712.76,455.547,712.478,455.829,712.131,455.829z"/>
				<path style="fill:#D5D5D1;" d="M718.617,461.579v2.549l-12.371-0.015c-0.698-0.001-1.265-0.569-1.261-1.267
					c0-0.009,0-0.017,0-0.026c0.004-0.695,0.567-1.258,1.262-1.258h12.353C718.607,461.569,718.611,461.572,718.617,461.579z"/>
				<g>
					<path style="fill:#A8A8A5;" d="M697.896,455.181c0.008,0.367,0.017,0.825,0.017,1.349c0.008,0.208,0.008,0.425,0.008,0.658
						c0.142,0.142,0.283,0.292,0.408,0.45c0.983,1.199,1.508,2.749,1.508,4.215l3.29-0.191c-0.242-2.241-1.241-4.331-2.799-5.864
						c-0.683-0.675-1.474-1.249-2.349-1.674C697.913,454.465,697.888,454.823,697.896,455.181z"/>
				</g>
			</g>
			<path style="fill:#FFB74A;" d="M668.226,302.169l-5.225,24.003l0,0c1.707,3.947,5.502,6.587,9.797,6.815l8.735,0.464
				c0,0,4.24,38.592,6.743,47.769l5.435,42.526l18.392-0.978v-48.221c0,0-0.375-39.378-3.508-53.227
				c-3.133-13.849-6.136-21.524-6.136-21.524L668.226,302.169z"/>
			<g>
				<path style="fill:#C15538;" d="M679.307,260.626c-2.512,2.638-5.057,5.245-7.615,7.84c-2.582,2.572-5.137,5.17-7.745,7.719
					c-2.604,2.552-5.184,5.126-7.813,7.655c-2.61,2.546-5.251,5.064-7.896,7.577l-0.895,0.851c-0.87,0.826-1.932,1.322-3.034,1.491
					l-37.908,5.867c-2.367,0.366-4.583-1.256-4.95-3.623c-0.32-2.068,0.88-4.021,2.767-4.726l35.927-13.44l-3.929,2.341
					c2.33-2.808,4.664-5.612,7.03-8.387c2.347-2.792,4.742-5.539,7.113-8.309c2.368-2.772,4.788-5.496,7.181-8.245
					c2.418-2.726,4.847-5.441,7.311-8.124c3.696-4.025,9.955-4.292,13.98-0.596c4.025,3.696,4.292,9.955,0.596,13.98
					C679.4,260.527,679.336,260.595,679.307,260.626z"/>
			</g>
			<path style="fill:#AD9D4C;" d="M667.546,244.55l-1.186,0.778c-2.23,1.462-4.231,3.245-5.941,5.292l-19.043,22.797l13.455,12.38
				l10.015-8.734l8.987-22.186L667.546,244.55z"/>
			<rect x="676.992" y="227.872" style="fill:#D06C54;" width="15.661" height="21.115"/>
			<path style="fill:#C15538;" d="M676.992,227.872v6.531c3.567,0.148,11.748-0.227,15.078-6.502l-2.292-0.03H676.992z"/>
			<path style="fill:#D06C54;" d="M669.09,212.909c0-10.347,6.92-18.735,15.457-18.735c8.537,0,15.457,8.388,15.457,18.735
				c0,3.235-0.684,6.48-2.089,9.4c-1.263,2.626-3.117,4.995-5.492,6.702c-1.476,1.06-3.206,1.873-4.987,2.252
				c-1.183,0.251-2.46,0.197-3.664,0.214c-1.322,0.018-2.644,0.001-3.964-0.051c-1.536-0.061-3.16-0.137-4.627-0.639
				c-1.299-0.444-2.493-1.232-3.426-2.237c-1.607-1.728-2.492-4.045-2.492-6.401v-6.583
				C669.161,214.696,669.09,213.814,669.09,212.909z"/>
			<g>
				<path style="fill:#D06C54;" d="M696.564,212.779c0.554-0.987,1.894-1.554,3.159-1.461c1.265,0.093,2.416,0.781,3.11,1.699
					c0.694,0.919,0.962,2.044,0.92,3.141c-0.043,1.132-0.417,2.275-1.217,3.172s-2.055,1.518-3.366,1.514
					c-1.311-0.004-2.626-0.7-3.082-1.761L696.564,212.779z"/>
				<g>
					
						<path style="fill:none;stroke:#C15538;stroke-width:0.6772;stroke-linecap:round;stroke-linejoin:round;stroke-miterlimit:10;" d="
						M699.558,218.867c-1.002-1.863-0.856-4.099,0.381-5.868"/>
					
						<path style="fill:none;stroke:#C15538;stroke-width:0.6772;stroke-linecap:round;stroke-linejoin:round;stroke-miterlimit:10;" d="
						M699.188,215.553c1.053,0.464,1.871,1.263,2.233,2.184"/>
				</g>
			</g>
			<path style="fill:#1B141C;" d="M704.787,216.09c-2.188,1.165-4.981,1.104-7.116-0.158c-2.135-1.261-3.655-3.625-3.69-6.104
				c-1.577,1.357-3.81,1.912-5.839,1.452s-3.796-2.165-4.635-4.069c-1.816,2.816-4.907,4.774-8.229,5.213
				c-3.322,0.439-6.815-0.649-9.3-2.897c0.993-2.891,2.159-6.091,3.588-8.793c1.429-2.702,3.319-5.215,5.812-6.983
				c3.37-2.391,7.774-3.265,11.802-2.342c5.158,1.182,9.35,5.104,12.055,9.652C701.94,205.61,703.391,210.985,704.787,216.09z"/>
			<path style="fill:#C1AF55;" d="M703.438,303.451c2.44-13.4,4.259-26.913,5.451-40.481c0.453-5.163,0.706-10.776-2.189-15.075
				c-2.525-3.749-6.846-5.821-11.01-7.582c-3.159,4.202-7.833,7.662-12.908,9.033c-3.07-2.035-5.92-5.069-7.732-8.276
				c-2.67,1.02-5.341,2.112-7.758,3.637c-2.417,1.525-4.476,3.165-4.752,6.01c-0.463,4.768-4.956,8.99-5.516,13.747
				c-0.303,2.57,0.313,5.171,1.243,7.586c0.93,2.415,2.173,4.697,3.198,7.073c3.203,7.419,5.176,15.808,6.164,23.829
				C679.801,306.129,691.177,306.26,703.438,303.451z"/>
			<polygon style="fill:#FF9029;" points="692.435,422.742 713.388,420.877 713.717,427.24 693.038,426.911 			"/>
			<path style="fill:none;stroke:#FF9029;stroke-width:0.8329;stroke-miterlimit:10;" d="M710.129,423.244l-1.387-80.79
				c-0.098-5.682-0.84-11.335-2.212-16.85l-2.789-10.392"/>
			<polygon style="fill:#FF9029;" points="675.682,422.429 654.729,420.564 654.4,426.927 675.079,426.598 			"/>
			<path style="fill:none;stroke:#FF9029;stroke-width:0.8329;stroke-miterlimit:10;" d="M663.574,327.65
				c0,0,4.984,6.938,17.959,5.801l1.238,10.733"/>
			<path style="fill:none;stroke:#FF9029;stroke-width:0.8329;stroke-miterlimit:10;" d="M694,306.745
				c0.396,2.625,1.892,5.067,4.05,6.612c2.159,1.546,4.952,2.175,7.565,1.704"/>
			<path style="fill:none;stroke:#FF9029;stroke-width:0.8329;stroke-miterlimit:10;" d="M673.173,306.745
				c-0.396,2.625-1.892,5.067-4.05,6.612c-0.809,0.58-1.708,1.03-2.653,1.343"/>
			<path style="fill:none;stroke:#FF9029;stroke-width:0.8329;stroke-miterlimit:10;" d="M681.703,308.488
				c0.124,5.667,0.13,11.337,0.017,17.005"/>
			<g>
				
					<rect x="631.213" y="264.674" transform="matrix(-1 -1.224647e-16 1.224647e-16 -1 1308.2179 574.1834)" style="fill:#8F3F1F;" width="45.792" height="44.836"/>
				
					<rect x="595.291" y="264.674" transform="matrix(-1 -1.224647e-16 1.224647e-16 -1 1232.7079 574.1834)" style="fill:#B24F26;" width="42.126" height="44.836"/>
				
					<rect x="613.221" y="264.674" transform="matrix(-1 -1.224647e-16 1.224647e-16 -1 1232.7079 574.1834)" style="fill:#D47245;" width="6.265" height="44.836"/>
				
					<rect x="654.742" y="264.674" transform="matrix(-1 -1.224647e-16 1.224647e-16 -1 1315.7489 574.1834)" style="fill:#D47245;" width="6.265" height="44.836"/>
				<g>
					<g>
						<path style="fill:#CCCCCC;" d="M600.833,291.613l-2.035-3.307c-0.32-0.523-0.974-0.722-1.53-0.464l-3.529,1.62
							c-0.323,0.146-0.552,0.416-0.654,0.75l-2.813,9.278c-0.193,0.638,0.168,1.313,0.805,1.506l5.564,1.687
							c0.638,0.193,1.313-0.168,1.506-0.805l2.813-9.278C601.062,292.265,601.013,291.911,600.833,291.613z M597.516,289.78
							c-0.359-0.109-0.559-0.483-0.45-0.841c0.106-0.351,0.48-0.551,0.839-0.442c0.359,0.109,0.559,0.483,0.452,0.833
							C598.248,289.689,597.874,289.889,597.516,289.78z"/>
						<g>
							<path style="fill:#808080;" d="M595.332,298.998l-1.089-0.33c-0.096-0.029-0.158-0.071-0.187-0.127
								c-0.03-0.055-0.03-0.131-0.001-0.226l0.123-0.406l-1.03-0.312c-0.095-0.029-0.158-0.071-0.187-0.126
								c-0.03-0.055-0.03-0.131-0.001-0.226l0.266-0.879c0.029-0.095,0.071-0.158,0.127-0.187c0.055-0.03,0.131-0.03,0.226-0.001
								l2.022,0.613c0.065,0.02,0.12,0.013,0.166-0.02c0.046-0.033,0.077-0.079,0.096-0.139c0.026-0.085,0.029-0.153,0.008-0.203
								c-0.02-0.05-0.062-0.087-0.126-0.112l-1.079-0.499c-0.336-0.156-0.583-0.357-0.741-0.602
								c-0.159-0.245-0.174-0.578-0.046-0.999l0.239-0.789c0.118-0.391,0.327-0.663,0.625-0.816
								c0.298-0.153,0.655-0.186,1.072-0.098l0.128-0.421c0.029-0.095,0.071-0.157,0.127-0.187c0.055-0.03,0.131-0.03,0.226-0.001
								l1.089,0.33c0.095,0.029,0.158,0.071,0.187,0.127c0.03,0.056,0.03,0.131,0.001,0.226l-0.123,0.406l0.729,0.221
								c0.095,0.029,0.157,0.071,0.187,0.127c0.03,0.056,0.03,0.131,0.001,0.226l-0.271,0.895c-0.029,0.095-0.071,0.157-0.126,0.187
								c-0.056,0.03-0.131,0.03-0.226,0.001l-1.751-0.531c-0.065-0.02-0.122-0.013-0.17,0.018c-0.048,0.032-0.082,0.081-0.102,0.146
								c-0.02,0.065-0.019,0.125,0.003,0.181c0.021,0.056,0.064,0.096,0.128,0.121l1.074,0.49c0.335,0.156,0.584,0.357,0.744,0.603
								c0.161,0.246,0.177,0.579,0.05,1l-0.239,0.789c-0.115,0.381-0.32,0.65-0.614,0.806c-0.294,0.157-0.645,0.196-1.052,0.116
								l-0.128,0.421c-0.029,0.095-0.071,0.158-0.126,0.187C595.503,299.026,595.427,299.026,595.332,298.998z"/>
						</g>
					</g>
					
						<path style="fill:none;stroke:#F2F2F2;stroke-width:0.6247;stroke-linecap:round;stroke-linejoin:round;stroke-miterlimit:10;" d="
						M597.729,289.139c-0.901-1.479-0.646-3.432,0.167-4.961c0.813-1.529,2.104-2.737,3.327-3.962
						c1.223-1.225,2.411-2.512,3.266-4.017c0.855-1.505,1.361-3.26,1.126-4.975"/>
				</g>
				<polygon style="fill:#8F3F1F;" points="632.346,277.211 590.22,277.211 595.395,264.674 637.521,264.674 				"/>
				<polygon style="fill:#B24F26;" points="642.697,277.211 684.822,277.211 679.647,264.674 637.521,264.674 				"/>
			</g>
			<path style="fill:#D06C54;" d="M713.915,291.299l-0.145-1.284c-0.359-3.185-0.724-6.37-1.131-9.547
				c-0.382-3.181-0.829-6.351-1.244-9.526c-0.411-3.176-0.891-6.34-1.335-9.51c-0.478-3.164-0.971-6.325-1.511-9.478
				c-0.009-0.05-0.026-0.149-0.036-0.198c-1.032-5.366-6.218-8.881-11.585-7.849c-5.367,1.032-8.881,6.218-7.849,11.585
				c0.604,3.141,1.253,6.274,1.919,9.404c0.699,3.124,1.362,6.254,2.094,9.372c0.729,3.118,1.425,6.243,2.186,9.355
				c0.143,0.607,0.294,1.212,0.441,1.819l-35.005,8.37c-2.69-0.54-6.276-1.851-8.529-2.929c-1.12-0.536-3.017-1.374-3.71-1.295
				c-1.155,0.132,0.085,1.861,0.77,2.222c1.095,0.577,3.059,1.955,3.515,2.371c0.456,0.416-0.331,1.452-3.325,1.17
				c-2.994-0.282-10.353,0.014-8.749,1.125c1.604,1.112,8.292,1.422,8.292,1.422c-3.303,0.08-11.425,1.791-8.859,2.754
				c2.566,0.963,9.074,0.041,9.074,0.041c-2.482,0.36-9.672,2.56-7.116,3.204c2.556,0.644,7.725-0.807,7.725-0.807
				c-4.121,1.429-5.478,3.476-4.713,3.637c0.765,0.161,3.139-0.282,5.928-1.344c1.893-0.721,8.122-2.454,11.93-3.493l43.885-2.26
				c1.359-3.113,3.776-5.413,7.016-6.181C713.967,292.756,713.998,292.035,713.915,291.299z"/>
			<path style="fill:#C15538;" d="M706.828,299.632l0.018-0.001c0.144-0.008,0.31-0.021,0.455-0.037
				c3.381-0.381,5.978-2.955,6.542-6.143C710.604,294.219,708.188,296.518,706.828,299.632z"/>
			<path style="fill:#AD9D4C;" d="M695.69,240.313l4.853,2.35c4.629,2.241,7.945,6.518,8.963,11.56l3.931,19.475l-20.784,3.514
				l-3.609-17.456c-0.963-4.657-0.248-9.505,2.019-13.685l0,0L695.69,240.313z"/>
			<path style="fill:none;stroke:#FF9029;stroke-width:0.8329;stroke-miterlimit:10;" d="M678.752,309.416
				c-0.262,3.719-0.524,7.454-0.236,11.17c0.041,0.523,0.105,1.078,0.432,1.488c0.409,0.512,1.124,0.664,1.78,0.668
				c0.656,0.004,1.321-0.103,1.962,0.037"/>
			<polygon style="fill:#C15538;" points="656.954,426.927 657.084,431.929 672.899,429.872 673.32,426.626 			"/>
			<path style="fill:#C15538;" d="M695.334,426.947l15.78,0.293l0.022,5.107c0,0-15.383-2.295-15.392-2.365
				C695.734,429.911,695.334,426.947,695.334,426.947z"/>
			<polygon style="fill:#C15538;" points="693.732,277.028 694.54,280.527 712.054,275.893 711.797,273.974 			"/>
			<ellipse style="fill:#1B141C;" cx="672.811" cy="216.923" rx="1.109" ry="1.598"/>
			<path style="fill:#1B141C;" d="M685.656,216.923c0,0.883-0.497,1.598-1.109,1.598c-0.612,0-1.109-0.715-1.109-1.598
				c0-0.883,0.497-1.598,1.109-1.598C685.159,215.324,685.656,216.04,685.656,216.923z"/>
			
				<path style="fill:none;stroke:#1B141C;stroke-width:0.8329;stroke-linecap:round;stroke-linejoin:round;stroke-miterlimit:10;" d="
				M678.427,215.851c0.222,1.281-0.006,2.633-0.619,3.779c-0.338,0.632-0.8,1.236-0.857,1.95c-0.069,0.857,0.555,1.718,1.392,1.918"
				/>
			<path style="fill:#FFFFFF;" d="M674.358,225.786c0,2.16,1.751,3.91,3.911,3.91c2.16,0,3.911-1.751,3.911-3.91H674.358z"/>
			<path style="fill:#1B141C;" d="M673.847,212.693c0.331,0.005,0.674,0.035,0.96,0.2c0.286,0.166,0.497,0.502,0.421,0.824
				c-0.058,0.245-0.269,0.43-0.501,0.525c-0.233,0.095-0.488,0.113-0.739,0.131c-1.187,0.083-2.374,0.166-3.562,0.249
				c-0.337,0.024-1.329,0.153-1.336-0.374c-0.006-0.48,0.828-0.721,1.158-0.853C671.39,212.941,672.615,212.673,673.847,212.693z"/>
			<path style="fill:#1B141C;" d="M683.975,212.693c-0.331,0.005-0.674,0.035-0.96,0.2c-0.286,0.166-0.497,0.502-0.421,0.824
				c0.058,0.245,0.269,0.43,0.501,0.525c0.233,0.095,0.489,0.113,0.739,0.131c1.187,0.083,2.375,0.166,3.562,0.249
				c0.337,0.024,1.329,0.153,1.336-0.374c0.006-0.48-0.828-0.721-1.158-0.853C686.433,212.941,685.208,212.673,683.975,212.693z"/>
			<g>
				<path style="fill:none;stroke:#FFFFFF;stroke-width:0.7832;stroke-miterlimit:10;" d="M676.749,217.373
					c0,2.646-2.145,4.79-4.79,4.79c-2.646,0-4.79-2.145-4.79-4.79c0-2.646,2.145-4.79,4.79-4.79
					C674.604,212.583,676.749,214.728,676.749,217.373z"/>
				<path style="fill:none;stroke:#FFFFFF;stroke-width:0.7832;stroke-miterlimit:10;" d="M689.797,217.373
					c0,2.646-2.145,4.79-4.79,4.79c-2.646,0-4.79-2.145-4.79-4.79c0-2.646,2.145-4.79,4.79-4.79
					C687.652,212.583,689.797,214.728,689.797,217.373z"/>
				
					<line style="fill:none;stroke:#FFFFFF;stroke-width:0.7832;stroke-miterlimit:10;" x1="676.652" y1="216.413" x2="680.276" y2="216.413"/>
				
					<line style="fill:none;stroke:#FFFFFF;stroke-width:0.7832;stroke-linecap:round;stroke-linejoin:round;stroke-miterlimit:10;" x1="689.797" y1="215.903" x2="698.578" y2="215.903"/>
			</g>
		</g>
	</g>
	<g>
		<rect x="113.85" y="227.872" style="fill:#B7502D;" width="15.661" height="21.115"/>
		<path style="fill:#801400;" d="M129.511,229.298v6.531c-3.567,0.148-11.748-0.227-15.078-6.502l2.292-0.03H129.511z"/>
		<g>
			<path style="fill:#B7502D;" d="M148.702,454.793l-2.311-15.264l-2.225-15.269l-4.316-30.547l0.279,1.82l-5.081-14.56
				c-1.674-4.858-3.138-9.768-4.394-14.729c-1.265-4.959-2.385-9.953-3.358-14.983c-0.95-5.036-1.799-10.097-2.239-15.257
				c-0.515-6.032,3.958-11.34,9.99-11.855c4.86-0.415,9.253,2.424,11.045,6.691c1.999,4.778,3.59,9.657,5.079,14.56
				c1.467,4.909,2.786,9.854,3.961,14.835c1.184,4.979,2.159,10.008,2.925,15.089l2.238,15.258l0.279,1.821l-0.438,30.847
				l-0.286,15.428l-0.372,15.433c-0.072,2.992-2.556,5.358-5.547,5.286C151.258,459.335,149.086,457.347,148.702,454.793z"/>
		</g>
		<g>
			<path style="fill:#B7502D;" d="M201.879,234.067l4.44-13.242c0.805-2.394-0.259-5.075-2.585-6.23
				c-2.54-1.261-5.62-0.224-6.881,2.315l-7.429,14.964C193.587,232.836,197.733,233.443,201.879,234.067z"/>
		</g>
		<path style="fill:#B7502D;" d="M144.311,311.478h-42.873l-1.708-58.187c-0.154-5.237,2.703-9.896,7.012-11.358l15.426-5.234
			l16.686,5.33c4.385,1.401,7.315,6.101,7.159,11.403L144.311,311.478z"/>
		<path style="fill:#B7502D;" d="M139.68,346.052h-33.61c-4.593,0-7.991-5.964-7.279-12.661l2.763-25.974h42.643l2.763,25.974
			C147.671,340.088,144.273,346.052,139.68,346.052z"/>
		<g>
			<path style="fill:#B7502D;" d="M93.305,300.234c-3.714,3.219-7.621,6.251-11.446,9.326l13.843,16.98
				c1.675,2.059,4.642,2.666,7.022,1.305c2.649-1.514,3.569-4.888,2.055-7.537L93.305,300.234z"/>
		</g>
		<g>
			<path style="fill:#B7502D;" d="M98.666,455.902c-0.273-10.036-0.537-20.069-0.736-30.095l-0.653-30.071
				c-0.064-2.505-0.088-5.01-0.184-7.515c-0.185-2.508-0.399-5.016-0.63-7.525c-0.467-5.017-0.929-10.032-0.974-15.034
				c-0.051-5.002,0.135-9.997,0.469-14.989c0.176-2.496,0.421-4.99,0.717-7.483c0.308-2.493,0.646-4.986,1.179-7.475l0.002-0.009
				c1.274-5.953,7.133-9.746,13.086-8.472c4.545,0.973,7.833,4.645,8.566,8.965c0.421,2.522,0.647,5.04,0.843,7.557
				c0.184,2.517,0.317,5.034,0.381,7.549c0.11,5.03,0.073,10.056-0.202,15.075c-0.268,5.02-0.954,10.026-1.645,15.03
				c-0.712,5.004-1.252,10.01-1.806,15.013l-3.343,30.012c-1.096,10.001-2.257,19.997-3.426,29.988
				c-0.375,3.205-3.277,5.499-6.482,5.124C100.905,461.205,98.741,458.76,98.666,455.902z"/>
		</g>
		<path style="fill:#B7502D;" d="M137.413,212.909c0-10.347-6.92-18.735-15.457-18.735c-8.537,0-15.457,8.388-15.457,18.735
			c0,3.235,0.684,6.48,2.089,9.4c1.263,2.626,3.117,4.995,5.492,6.702c1.476,1.06,3.207,1.873,4.987,2.252
			c1.183,0.251,2.46,0.197,3.664,0.214c1.322,0.018,2.644,0.001,3.965-0.051c1.536-0.061,3.16-0.137,4.627-0.639
			c1.299-0.444,2.493-1.232,3.426-2.237c1.607-1.728,2.492-4.045,2.492-6.401v-6.583
			C137.342,214.696,137.413,213.814,137.413,212.909z"/>
		<g>
			<path style="fill:#B7502D;" d="M109.939,212.779c-0.554-0.987-1.894-1.554-3.159-1.461c-1.265,0.093-2.416,0.781-3.11,1.699
				c-0.694,0.919-0.962,2.044-0.92,3.141c0.043,1.132,0.417,2.275,1.217,3.172c0.8,0.897,2.055,1.518,3.366,1.514
				c1.31-0.004,2.626-0.7,3.082-1.761L109.939,212.779z"/>
			<g>
				<g>
					
						<path style="fill:none;stroke:#540E04;stroke-width:0.6772;stroke-linecap:round;stroke-linejoin:round;stroke-miterlimit:10;" d="
						M106.945,218.867c1.002-1.863,0.856-4.099-0.381-5.868"/>
					
						<path style="fill:none;stroke:#540E04;stroke-width:0.6772;stroke-linecap:round;stroke-linejoin:round;stroke-miterlimit:10;" d="
						M107.315,215.553c-1.053,0.464-1.87,1.263-2.233,2.184"/>
				</g>
			</g>
		</g>
		<path style="fill:#B7502D;" d="M202.695,227.52c0,0,7.44-13.781,9.521-16.84c2.082-3.059,3.298-5.795,3.324-6.763
			c0.026-0.968-2.833,0.08-5.74,4.639c0,0,3.234-5.817,3.192-9.085c-0.042-3.267-4.762,4.772-5.909,7.662
			c0,0,2.981-7.583,2.557-10.955c-0.424-3.372-4.821,5.932-5.867,9.893c0,0,1.547-8.155,0.667-10.408
			c-0.88-2.253-3.351,6.537-3.871,10.229c-0.52,3.692-1.996,4.343-2.367,3.674c-0.371-0.669-1.468-3.434-1.85-4.92
			c-0.238-0.929-1.967-2.922-2.458-1.567c-0.295,0.813,0.171,3.342,0.495,4.846c0.865,4.012,1.554,10.97,0.729,13.932
			c-0.825,2.961-1.277,4.111-1.277,4.111L202.695,227.52z"/>
		<g>
			<path style="fill:#1B141C;" d="M146.278,452.029c0,0.093,0,0.194,0.008,0.295c0.008,0.606,0.047,1.259,0.078,1.919
				c0.031,0.466,0.062,0.932,0.093,1.406c0.054,0.668,0.109,1.344,0.171,2.005c0.124,1.438,0.272,2.79,0.396,3.885
				c0.171,1.539,0.303,2.564,0.303,2.564l33.671-0.023c0,0,0.956-1.096,0.008-2.541c-1.383-2.153-3.963-5.098-8.253-6.528
				c-4.709-1.578-7.553-3.66-9.465-5.735c-0.054-0.07-0.117-0.124-0.163-0.194c-0.583-0.629-1.057-1.274-1.484-1.896
				c-0.054-0.062-0.101-0.14-0.14-0.21c-0.218-0.334-0.412-0.653-0.614-0.964c-0.707-1.166-1.803-0.653-2.891,0.412
				c-2.316,2.269-5.813,2.899-8.789,1.616c-0.956-0.42-1.803-0.645-2.292-0.474c-0.342,0.132-0.528,0.917-0.598,2.083
				C146.271,450.327,146.263,451.143,146.278,452.029z"/>
			<path style="fill:#D5D5D1;" d="M147.024,461.536c-0.103,1.535-0.091,2.573-0.091,2.573l34.073-0.028c0,0,0.953-1.095-0.001-2.545
				H147.024z"/>
			<path style="fill:#D5D5D1;" d="M158.999,449.574l1.018,1.307c0.17,0.221,0.492,0.255,0.704,0.085l2.401-1.883
				c-0.577-0.628-1.052-1.273-1.485-1.892c-0.051-0.068-0.093-0.144-0.136-0.212l-2.418,1.892
				C158.863,449.04,158.821,449.362,158.999,449.574z"/>
			<path style="fill:#D5D5D1;" d="M146.278,452.029c0,0.093,0,0.194,0.008,0.295l0.762,0.093c0.28,0.039,0.536-0.163,0.559-0.435
				l0.202-1.647c0.039-0.28-0.163-0.528-0.435-0.56l-1.057-0.124C146.271,450.327,146.263,451.143,146.278,452.029z"/>
			<path style="fill:#D5D5D1;" d="M156.644,455.582c0,1.411-1.144,2.555-2.555,2.555c-1.411,0-2.555-1.144-2.555-2.555
				c0-1.411,1.144-2.555,2.555-2.555C155.5,453.027,156.644,454.171,156.644,455.582z"/>
		</g>
		<g>
			<path style="fill:#1B141C;" d="M90.773,462.236v1.874h20.757v-0.025c0-0.891-0.008-1.741-0.025-2.549
				c-0.017-0.966-0.025-1.866-0.025-2.674c-0.017-1.583,0-2.84,0.017-3.682c0.008-0.416-0.025-0.833-0.117-1.233
				c-0.067-0.366-0.183-0.733-0.333-1.083l-2.241-5.164c-0.433-1.174-1.549-1.949-2.807-1.949h-4.506
				c-1.657,0-2.998,1.341-2.998,2.999l-5.214,6.43c-0.808,1-1.441,2.116-1.866,3.307c-0.35,0.974-0.558,1.999-0.616,3.048
				C90.782,461.77,90.773,462.003,90.773,462.236z"/>
			<path style="fill:#A8A8A5;" d="M97.287,462.262v1.866l14.243-0.017c0-0.891-0.006-1.741-0.017-2.549H97.304
				C97.293,461.796,97.287,462.029,97.287,462.262z"/>
			<path style="fill:#D5D5D1;" d="M100.629,451.598h4.842c0.725,0,1.312-0.587,1.312-1.312l0,0c0-0.725-0.588-1.312-1.312-1.312
				h-4.842c-0.725,0-1.312,0.587-1.312,1.312l0,0C99.317,451.01,99.905,451.598,100.629,451.598z"/>
			<path style="fill:#D5D5D1;" d="M98.421,453.674h6.209c0.347,0,0.629-0.281,0.629-0.629l0,0c0-0.347-0.282-0.629-0.629-0.629
				h-6.209c-0.347,0-0.629,0.281-0.629,0.629l0,0C97.792,453.393,98.074,453.674,98.421,453.674z"/>
			<path style="fill:#D5D5D1;" d="M97.259,455.829h6.209c0.347,0,0.629-0.281,0.629-0.629l0,0c0-0.347-0.282-0.629-0.629-0.629
				h-6.209c-0.347,0-0.629,0.281-0.629,0.629l0,0C96.631,455.547,96.912,455.829,97.259,455.829z"/>
			<path style="fill:#D5D5D1;" d="M109.556,456.398c0,1.191,0.816,2.182,1.924,2.465c-0.017-1.583,0-2.84,0.017-3.682
				c0.008-0.416-0.025-0.833-0.117-1.233C110.33,454.265,109.556,455.24,109.556,456.398z"/>
			<path style="fill:#D5D5D1;" d="M90.773,461.579v2.549l12.371-0.015c0.698-0.001,1.265-0.569,1.261-1.267c0-0.009,0-0.017,0-0.026
				c-0.004-0.695-0.567-1.258-1.262-1.258H90.79C90.783,461.569,90.78,461.572,90.773,461.579z"/>
		</g>
		<path style="fill:#B7502D;" d="M96.999,318.704c0,0-7.799,16.1,0.622,20.612l5.714-10.306L96.999,318.704z"/>
		<path style="fill:#1B141C;" d="M137.726,220.957c-0.042,1.571-0.085,3.154-0.424,4.688c-0.339,1.535-0.996,3.037-2.112,4.143
			c-1.512,1.499-3.675,2.114-5.764,2.525c-2.775,0.546-5.627,0.832-8.434,0.493c-2.808-0.339-5.58-1.331-7.762-3.13
			c-2.732-2.253-4.843-5.317-5.173-8.843c-0.102-1.086-0.069-2.185,0.096-3.263c0.857-0.007,1.685-0.006,2.543-0.013
			c0.119,1.246,0.17,2.516,1.169,3.366c0.889,0.756,2.133,0.979,3.261,1.072c2.122,0.174,4.27,0.035,6.353-0.413
			c2.709-0.582,5.292-1.677,8.018-2.173C132.223,218.915,135.571,219.217,137.726,220.957"/>
		<path style="fill:#801400;" d="M111.699,209.86l-0.279,4.469L108,214.798c0,0,0.068-2.949-1.419-3.489
			c-0.417-0.151,0.162-1.767,0.162-1.767L111.699,209.86z"/>
		<path style="fill:#1B141C;" d="M111.699,209.86c-0.979,0.296-1.972,0.595-2.995,0.62c-1.022,0.025-2.095-0.257-2.819-0.979
			c-0.707-0.704-0.994-1.725-1.133-2.713c-0.456-3.242,0.45-6.653,2.454-9.242c2.004-2.589,5.08-4.32,8.333-4.691
			c3.343-0.381,6.945,0.578,9.965-0.906c1.393-0.685,2.547-1.851,4.032-2.302c1.268-0.385,2.702-0.184,3.814,0.537
			c1.112,0.72,1.883,1.946,2.051,3.26c1.068-1.704,3.671-2.02,5.326-0.877s2.329,3.384,1.947,5.359
			c-0.382,1.975-1.671,3.681-3.234,4.947c-1.275,1.033-1.981,2.693-3.436,3.452c-2.476,1.292-5.47,0.974-8.194,0.352
			s-5.458-1.52-8.241-1.28C116.443,205.667,113.382,207.212,111.699,209.86z"/>
		<path style="fill:#3C4C8A;" d="M101.002,393.245c1.462-5.847-0.926-11.052-5.472-14.491c0.18,4.781,0.352,7.943,0.352,7.943
			l0.329,12.863C98.809,398.515,99.623,395.313,101.002,393.245z"/>
		<path style="fill:#556BC1;" d="M159.974,381.575c-3.4-25.917-12.092-48.854-12.092-48.854l-3.051-23.309l-43.674-0.238
			c0,0-3.608,17.002-5.277,31.281c-1.172,10.031-0.741,27.96-0.352,38.298c4.546,3.439,6.934,8.644,5.472,14.491
			c-1.379,2.068-2.193,5.27-4.791,6.315l1.077,42.099h15.709l6.089-52.001c2.468-10.532,3.79-40.317,3.79-40.317l2.792,1.316
			c1.316,14.975,13.658,45.401,13.658,45.401l6.253,44.119h0.693l14.734-1.481V398.4
			C157.28,394.145,157.225,386.807,159.974,381.575z"/>
		<path style="fill:#3C4C8A;" d="M159.974,381.575c-2.749,5.232-2.694,12.57,1.032,16.825v-6.602
			C160.773,388.368,160.416,384.948,159.974,381.575z"/>
		<path style="fill:#FF9029;" d="M176.017,284.111c0.769,0.277,1.519,0.542,2.22,0.781c3.66,1.246,7.629-0.735,8.845-4.404
			l1.035-3.125C183.534,276.55,178.525,280.066,176.017,284.111z"/>
		<path style="fill:#FF9029;" d="M66.943,278.253c-0.855,1.353-1.607,2.678-2.219,3.956c-1.386,2.895-0.971,6.331,1.004,8.861
			l2.29,2.781C69.86,288.776,69.724,282.987,66.943,278.253z"/>
		<path style="fill:#FFB74A;" d="M191.686,226.096l-16.991,33.915c-6.784-6.453-24.569-14.556-30.385-17.111
			c-1.198-0.526-2.436-0.95-3.705-1.267l-8-1.994c-2.352,3.313-6.326,5.413-10.387,5.49c-4.062,0.077-8.113-1.871-10.588-5.092
			c-1.688,0.371-3.571,0.863-5.194,1.55c-4.075,1.389-7.844,3.554-11.102,6.384c-7.828,6.8-21.571,19.491-28.39,30.281
			c2.781,4.734,2.917,10.523,1.075,15.598l18.717,22.733l11.015-9.747L87.3,288.102l12.775-11.03
			c-0.209,14.503-0.23,30.267,0.186,38.232c14.811,3.72,30.868,4.651,45.81,1.546c0.072-14.699-0.007-31.483-0.026-47.431
			c9.044,6.261,21.441,11.621,29.972,14.692c2.507-4.045,7.516-7.561,12.1-6.748l15.449-46.621L191.686,226.096z"/>
		<path style="fill:#FF9029;" d="M111.629,240.038c0,0,2.188,3.226,8.033,4.875l-2.262,4.075c0,0-7.241-2.854-7.362-8.576
			L111.629,240.038z"/>
		<path style="fill:#FF9029;" d="M132.6,239.639c0,0-2.085,3.55-7.93,5.199l2.277,4.118c0,0,7.123-3.222,7.244-8.945L132.6,239.639z
			"/>
		<polygon style="fill:#FF9029;" points="97.811,305.626 84.318,315.094 88.578,319.584 98.989,307.276 		"/>
		<polygon style="fill:#FF9029;" points="191.26,225.234 204.67,230.432 203.679,234.095 190.174,227.473 		"/>
		<path style="fill:#FF9029;" d="M146.08,314.724c0,0.716-0.008,1.424-0.008,2.124c-14.943,3.107-31.002,2.174-45.811-1.541
			c-0.033-0.716-0.067-1.491-0.1-2.324C115.045,316.565,131.037,317.507,146.08,314.724z"/>
		<polygon style="fill:#3C4C8A;" points="96.333,439.977 114.298,439.632 113.483,444.189 96.852,442.692 		"/>
		<polygon style="fill:#3C4C8A;" points="143.954,439.251 163.122,436.177 162.491,442.28 144.527,442.568 		"/>
		<path style="fill:none;stroke:#3C4C8A;stroke-width:0.8329;stroke-miterlimit:10;" d="M147.814,440.023l-5.793-45.025
			c0,0-14.206-34.317-13.653-45.202"/>
		<path style="fill:none;stroke:#3C4C8A;stroke-width:0.8329;stroke-miterlimit:10;" d="M110.527,440.776l5.794-48.407
			c0,0,4.069-14.289,4.49-42.572"/>
		<path style="fill:none;stroke:#3C4C8A;stroke-width:0.8329;stroke-miterlimit:10;" d="M100.939,328.393
			c4.227-1.201,7.628-4.928,8.439-9.248"/>
		<path style="fill:none;stroke:#3C4C8A;stroke-width:0.8329;stroke-miterlimit:10;" d="M137.166,320.019
			c0.986,3.785,4.167,6.912,7.968,7.835"/>
		<path style="fill:none;stroke:#3C4C8A;stroke-width:0.8329;stroke-miterlimit:10;" d="M124.832,322.603
			c-0.017,5.463,0.13,10.926,0.44,16.38"/>
		<path style="fill:none;stroke:#3C4C8A;stroke-width:0.8329;stroke-miterlimit:10;" d="M120.535,323.323
			c-0.2,1.646-0.401,3.306-0.245,4.957s0.698,3.312,1.816,4.537c1.117,1.225,2.872,1.936,4.48,1.535"/>
		<ellipse style="fill:#FF9029;" cx="122.863" cy="276.709" rx="8.987" ry="11.046"/>
		<path style="fill:none;stroke:#FF9029;stroke-width:0.8329;stroke-miterlimit:10;" d="M100.086,277.124
			c3.097-2.946,5.555-6.562,7.156-10.526"/>
		<path style="fill:none;stroke:#FF9029;stroke-width:0.8329;stroke-miterlimit:10;" d="M146.103,269.416
			c-2.567-2.784-4.477-6.171-5.531-9.809"/>
		<path style="fill:none;stroke:#FF9029;stroke-width:0.8329;stroke-miterlimit:10;" d="M86.929,288.138
			c-2.788,0.492-5.71,0.202-8.347-0.829"/>
		<path style="fill:none;stroke:#FF9029;stroke-width:0.8329;stroke-miterlimit:10;" d="M175.072,260.523
			c0.649,2.521,1.748,4.926,3.228,7.068"/>
		<polygon style="fill:#801400;" points="97.999,308.447 89.309,318.72 91.654,321.575 98.523,309.365 		"/>
		<polygon style="fill:#801400;" points="192.485,225.709 203.278,229.893 204.131,227.35 193.067,224.536 		"/>
		<polygon style="fill:#801400;" points="98.307,442.823 98.442,444.982 111.592,445.276 111.735,444.032 		"/>
		<polygon style="fill:#801400;" points="159.751,442.324 146.838,442.568 147.217,444.883 159.751,443.335 		"/>
		<path style="fill:#1B141C;" d="M133.413,213.464c0,0.883,0.496,1.598,1.109,1.598c0.613,0,1.109-0.715,1.109-1.598
			s-0.496-1.598-1.109-1.598C133.91,211.866,133.413,212.582,133.413,213.464z"/>
		<ellipse style="fill:#1B141C;" cx="124.166" cy="213.464" rx="1.109" ry="1.598"/>
		
			<path style="fill:none;stroke:#1B141C;stroke-width:0.8329;stroke-linecap:round;stroke-linejoin:round;stroke-miterlimit:10;" d="
			M129.912,212.453c-0.222,1.281,0.006,2.633,0.619,3.779c0.338,0.631,0.8,1.236,0.857,1.95c0.069,0.857-0.555,1.718-1.392,1.918"/>
		<path style="fill:#FFFFFF;" d="M126.701,223.3c0,2.16,1.751,3.911,3.91,3.911c2.16,0,3.911-1.751,3.911-3.911H126.701z"/>
		<path style="fill:#1B141C;" d="M122.536,209.136c0.89-0.139,1.813-0.149,2.725-0.031c0.234,0.031,0.472,0.071,0.681,0.179
			c0.208,0.108,0.384,0.296,0.403,0.507c0.019,0.211-0.121,0.405-0.309,0.521c-0.188,0.115-0.418,0.165-0.646,0.204
			c-1.229,0.211-2.51,0.171-3.777,0.076c-0.517-0.039-1.128-0.365-0.742-0.871C121.162,209.34,122.062,209.21,122.536,209.136z"/>
		<path style="fill:#1B141C;" d="M135.533,209.136c-0.89-0.139-1.814-0.149-2.725-0.031c-0.234,0.031-0.472,0.071-0.681,0.179
			c-0.209,0.108-0.384,0.296-0.403,0.507c-0.019,0.211,0.121,0.405,0.309,0.521c0.188,0.115,0.418,0.165,0.646,0.204
			c1.229,0.211,2.51,0.171,3.777,0.076c0.517-0.039,1.128-0.365,0.742-0.871C136.907,209.34,136.007,209.21,135.533,209.136z"/>
	</g>
</g>
</svg>
